<?xml version="1.0" encoding="UTF-8"?>
<svg version="1.1" viewBox="0 0 2048 2048" width="512" height="512" xmlns="http://www.w3.org/2000/svg">
<path transform="translate(315,1190)" d="m0 0h8l12 5 23 13 35 18 15 8 20 9 14 7 27 12 33 14 47 18 34 12 35 11 23 7 40 11 45 11 43 9 59 10 53 7 42 4 42 3 18 1 34 1h38l48-2 55-4 46-5 55-8 49-9 41-9 48-12 35-10 45-14 45-16 41-16 12-5 12-3h12l8 4 7 8 2 6-1 9-6 10-11 8-38 24-17 10-23 13-29 15-26 13-36 16-30 12-30 11-36 12-27 8-35 9-35 8-44 8-35 5-37 4-42 3-21 1h-70l-56-3-47-5-40-6-33-6-37-8-39-10-49-15-40-14-42-17-33-15-25-12-20-10-22-12-26-15-26-16-30-20-17-12-18-13-28-22-16-13-10-9-11-9-11-10-4-6v-8l3-5z"/>
<path transform="translate(1274,639)" d="m0 0h52l6 3 3 6v13l-5 17-10 32-11 33-16 50-16 49-16 50-14 44-10 30-16 50-10 30-7 11-6 4-7 2h-58l-10-5-6-9-5-18-16-67-14-57-14-59-14-57-11-47-2-7-10 40-19 80-17 72-10 41-11 46-7 29-6 11-6 5-7 2h-59l-9-4-6-8-6-15-9-31-57-190-14-47-21-70-10-34-1-5v-8l3-6 5-3h59l10 4 6 9 4 10 20 79 24 95 18 71 16 63v2h2l1-11 15-64 12-50 24-102 12-50 9-38 4-9 8-7 5-2h58l9 3 6 5 4 8 8 32 24 100 26 108 17 71 2 8 7-24 11-43 21-81 22-84 13-51 9-34 7-14 7-5z"/>
<path transform="translate(528,626)" d="m0 0h50l20 3 20 6 15 6 19 10 14 10 9 8 9 12 8 13 8 16 8 24 3 16 1 10 1 199 4 21 8 20 8 17 3 8-1 9-7 8-32 21-9 4h-7l-8-4-10-10-10-14-12-22-2-5h-3l-2 4-16 16-17 13-15 9-19 9-18 6-24 5-7 1-17 1h-16l-22-3-24-8-15-8-14-10-12-11-11-14-8-14-7-16-5-21-1-8v-28l3-19 5-16 5-12 9-15 8-10 3-4h2l2-4 11-9 13-9 14-8 20-8 17-5 16-3 12-1h28l30 2 35 5 28 6 4 1v-55l-3-16-4-13-8-16-6-8-7-6-17-9-15-5-9-2-11-1h-19l-28 2-26 5-30 9-29 11-8 2h-11l-5-5-2-10v-28l2-9 4-6 9-7 16-8 20-8 23-7 22-5 27-4zm-8 245-18 4-15 6-12 7-10 10-8 14-5 15-1 6v17l4 15 8 16 9 10 9 8 15 8 17 4h17l21-3 21-6 16-8 14-10 10-9 8-11 6-15 4-18 2-15v-35l-36-7-25-3z"/>
<path transform="translate(1523,628)" d="m0 0h23l20 1 25 5 26 7 14 5 15 9 8 9 3 7 1 8v16l-2 15-5 6-4 1-16-4-20-8-20-6-19-4-18-2h-30l-20 3-17 5-15 8-7 7-6 10-3 10v21l4 11 6 9 10 9 17 10 16 7 27 9 41 13 20 7 16 7 16 10 13 11 13 13 10 15 6 13 5 17 2 14v19l-3 20-5 16-8 17-12 17-16 16-15 11-14 8-20 8-21 6-21 4-19 2h-30l-23-2-29-5-28-7-21-8-15-8-9-7-4-9-1-25 1-13 3-6 4-3 4-1h8l16 6 15 6 19 6 24 5 24 3 34 1 20-2 19-5 19-8 9-7 8-9 5-11 2-8v-18l-4-13-6-9-10-9-15-9-15-6-72-22-29-10-17-9-13-9-13-11-8-8-11-15-9-19-5-16-2-12v-25l4-18 5-13 6-12 10-14 12-13 17-13 16-9 18-8 21-6 26-4z"/>
<path transform="translate(1620,1161)" d="m0 0h31l32 3 25 5 16 6 11 7 4 6 2 9v23l-2 20-5 24-5 19-10 29-12 26-8 15-10 16-11 15-9 11-7 7-1 2h-2v2h-2v2l-8 7-11 9-6 3h-7l-5-5v-8l8-22 13-34 12-36 8-29 5-26v-24l-4-10-5-4-8-4-17-4-8-1-22-1h-22l-36 2-42 4-16 2h-15l-4-3-1-8 3-6 8-7 15-9 16-8 14-6 21-7 26-6 26-4z"/>
<path transform="translate(1167,974)" d="m0 0"/>
</svg>
