<?xml version="1.0" encoding="UTF-8"?>
<svg version="1.1" viewBox="0 0 900 900" width="225" height="225" xmlns="http://www.w3.org/2000/svg">
<path transform="translate(0)" d="m0 0h900v900h-900z" fill="#029686"/>
<path transform="translate(493,87)" d="m0 0 5 2 1 3 1 161 1 113 135 1 13 2 1 5-7 16-9 17-34 68-10 19-10 21-74 148-9 19-62 124-4 5-5 1-4-4v-274l-1-1-45-1h-102l-6-1-1-7 8-18 30-58 9-17 8-16 9-17 18-36 10-19 15-30 10-19 13-26 10-19 18-35 12-24 10-19 10-20 10-19 12-24 11-20z" fill="#FFFEFE"/>
<path transform="translate(0,484)" d="m0 0 2 4 5 36 8 39 9 30 8 22 11 26 16 31 14 23 11 16 16 21 11 13 12 14 20 20 8 7 13 11 10 8 12 9 19 13 20 12 14 8 23 11 20 9 24 9 27 8 31 7 38 6 12 2v1h-414z" fill="#FFFEFE"/>
<path transform="translate(899,489)" d="m0 0h1v411h-419v-1l24-3 20-3 34-7 25-7 24-8 21-9 28-13 22-12 16-10 19-13 21-16 13-11 7-7 8-7 21-21 9-11 11-13 13-18 8-12 11-17 13-24 11-22 11-26 11-33 9-38z" fill="#FFFEFE"/>
<path transform="translate(0)" d="m0 0h404l-3 2-33 5-32 7-28 8-22 8-21 9-16 8-27 14-17 11-18 12-18 14-11 9-10 9-8 7-22 22-9 11-12 14-10 13-11 16-14 22-12 22-15 33-6 15-10 30-7 27-6 32-5 35h-1z" fill="#FFFEFE"/>
<path transform="translate(495)" d="m0 0h405v409l-2-4-5-33-8-37-9-30-7-20-9-21-9-19-12-22-10-17-15-22-14-18-11-13-12-13-24-24-8-7-13-11-16-12-27-18-15-9-27-14-21-10-27-10-21-7-32-8-26-5-25-4z" fill="#FFFEFE"/>
</svg>
