<?xml version="1.0" encoding="UTF-8"?>
<svg version="1.1" viewBox="0 0 1392 1516" width="348" height="379" xmlns="http://www.w3.org/2000/svg">
<path transform="translate(0)" d="m0 0h1392v1516h-1392z" fill="#FCFCFC"/>
<path transform="translate(570,132)" d="m0 0h32l19 5 13 5 15 9 13 11 11 12 9 15 7 16 4 16 1 24-1 14-5 19-8 16-7 11-8 10-7 7-21 14-16 7-11 3-1 1v55l21 5 21 9 16 10 11 9 15 15 4-2 25-14 17-10h2l-4-19v-31l5-19 8-19 8-12 15-16 13-10 14-8 21-7 5-1h37l15 4 16 7 11 6 14 11 7 7 11 15 9 19 5 15 2 17v14l-2 15-5 16-5 12-7 11-9 12-9 9-14 10-15 8-20 6-15 2h-14l-17-2-16-5-21-11-13-11-5-5-5 1-26 15-17 10-1 5 3 6 2 9 3 22v15l-4 25-4 12v5l14 7 17 10 13 8 5 1 6-7 12-9 13-8 18-7 14-3h30l15 3 16 6 16 9 10 8 13 13 10 15 7 16 6 21 1 21-1 14-5 18-7 16-7 11-7 9-5 6-14 11-13 8-14 6-16 4-11 1h-17l-16-2-18-6-10-5-11-7-12-11-9-9-7-10-8-15-6-19-2-8v-29l4-20-22-13-24-14-4-1-2 4-15 15-14 10-19 10-24 8-8 2v55l16 5 16 8 11 7 15 14 10 13 9 17 5 15 2 10 1 23-1 14-6 21-8 16-12 16-8 9-14 10-12 7-15 6-13 3-14 1h-11l-13-1-15-4-16-7-13-8-14-12-9-10-10-16-6-14-4-14-1-5v-35l5-20 8-16 7-11 12-13 7-7 10-7 14-8 11-4 11-2v-56l-12-3-21-7-17-9-17-12-18-18-9-13-9-16-6-15-4-14-2-8-2-24 2-21 4-17 7-18 9-17 13-18 11-11 17-13 16-9 16-7 20-5 1-1v-54l-9-3-20-9-11-7-14-11-11-14-9-15-5-11-4-15-1-5v-34l4-17 5-12 8-15 8-10 14-14 13-9 16-8 18-5z" fill="#010101"/>
<path transform="translate(464,1135)" d="m0 0h12l16 2 16 5 14 7 12 9 10 11 4 4-1-16v-14h57l1 3v160l-1 71h-57v-30l-6 8-11 11-17 10-15 5-13 3h-31l-26-6-19-9-12-8-13-11-10-13-8-13-6-13-5-17-3-13v-43l6-24 7-16 10-16 8-10 9-9 16-11 15-8 19-6 11-2z" fill="#010101"/>
<path transform="translate(1120,1135)" d="m0 0h12l16 2 16 5 16 8 10 8 5 5 7 9 2 1v-30h55l1 1v233l-4 1-52-1v-31l-3 3-6 9-14 12-16 8-19 5-6 1h-27l-17-3-16-5-16-8-11-7-20-20-10-16-8-18-3-9-2-8-3-23 1-22 3-19 6-18 12-23 11-13 9-9 12-9 16-9 17-6 12-3z" fill="#010101"/>
<path transform="translate(796,1062)" d="m0 0h57l1 167 5-5 12-14 10-10 9-11 14-15 7-8 10-11 9-11 2-1h67l-3 5-13 13-7 8-12 13-15 15-7 8-15 16-7 8-15 15 1 5 42 57 15 20 14 19 15 20 8 10v2h-65l-13-18-12-17-13-18-12-17-26-36-4-6v-2h-2v114h-57z" fill="#010101"/>
<path transform="translate(141,1062)" d="m0 0h54l1 1 1 167 11-13 7-7 9-11 13-13 9-11 12-13 7-7 7-8 2-4h69l-2 4-26 26-7 8-13 14-7 8-18 18-7 8-14 15-2 2 21 28 14 19 16 21 10 14 36 48v2l-65-1-8-10-13-19-13-18-12-17-13-18-14-19-8-12-1-1-1 115-56-1v-252z" fill="#010101"/>
<path transform="translate(755,1055)" d="m0 0h5v44l-20 3-6 3-5 5-5 10-1 4v18h37v45l-37 1v189l-1 1h-48l-7-1-1-12 1-178h-30v-44l29-1 1-32 4-13 6-12 8-10 8-6 14-7 9-3 13-2z" fill="#010101"/>
<path transform="translate(582,467)" d="m0 0h10l16 3 9 4 12 7 10 9 9 12 7 15 3 11v22l-4 14-8 16-10 12-13 10-17 7-7 2h-25l-16-5-14-8-10-9-8-10-8-16-2-5-2-10v-17l4-15 4-10 8-12 9-10 15-10 10-4 9-2z" fill="#FCFCFC"/>
<path transform="translate(1120,1189)" d="m0 0h27l14 3 13 7 12 11 7 9 8 16 3 9v27l-4 15-8 16-9 11-8 7-14 7-13 4h-29l-15-5-10-6-9-7-10-13-7-14-4-17-1-12 4-20 6-14 8-11 5-6 11-8 14-7z" fill="#FCFCFC"/>
<path transform="translate(462,1189)" d="m0 0h28l10 2 12 5 12 8 9 9 9 16 4 10 3 15v10l-4 19-8 16-8 11-7 7-14 9-16 5h-29l-15-5-12-7-14-14-8-14-6-17v-27l7-21 7-11 10-11 10-7 15-7z" fill="#FCFCFC"/>
<path transform="translate(574,191)" d="m0 0h23l10 3 10 7 7 6 7 11 4 12 1 9-1 13-5 12-9 12-8 6-10 5-9 2h-17l-10-3-8-4-12-11-8-14-2-6v-21l4-12 6-9 7-8 9-6z" fill="#FCFCFC"/>
<path transform="translate(834,640)" d="m0 0h22l11 4 11 8 7 7 7 14 2 8v16l-4 13-7 12-8 7-16 8-9 1-2 1h-8l-14-3-9-5-13-13-6-12-2-6-1-11 1-11 5-13 7-10 8-7 14-7z" fill="#FCFCFC"/>
<path transform="translate(574,790)" d="m0 0h24l13 5 11 9 9 12 4 11 1 13-2 14-6 12-9 10-8 6-11 5-15 2-13-2-14-7-7-6v-2h-2l-7-10-5-12v-21l5-13 6-9 4-5 10-7z" fill="#FCFCFC"/>
<path transform="translate(835,340)" d="m0 0h14l11 2 12 6 10 9 5 6 4 8 3 11v15l-3 11-6 11-8 9-11 7-9 3-6 1h-11l-11-2-9-4-8-6-8-9-7-14-1-4v-21l5-14 7-10 10-8 13-6z" fill="#FCFCFC"/>
</svg>
