<?xml version="1.0" encoding="UTF-8"?>
<svg version="1.1" viewBox="0 0 1872 1872" width="117" height="117" xmlns="http://www.w3.org/2000/svg">
<path transform="translate(0)" d="m0 0h1872v1872h-1872z" fill="#FDFDFD"/>
<path transform="translate(1642,224)" d="m0 0h43l26 2 22 4 20 7 14 9 11 9 10 10 10 13 8 13 7 15 6 21 1 5v9l-2 10-7 11-11 13-6 7-8 7-7 7-14 11-18 12-15 8-7 2h-10l-10-5-13-11-8-7-22-22-22-28-9-10-8-7-7 1-10 7-10 9-10 13-12 23-12 36-7 29-7 36-12 75-3 21-1 11 144 1 37 2 8 1 1 1v9l-7 41-6 27-4 13-4 1-84 3-71 2-22 1-3 39-12 140-11 130-16 176-7 69-10 82-8 54-7 37-9 36-9 29-8 22-13 30-15 30-13 23-12 18-12 14-8 8-22 18-19 12-25 14-26 12-26 11-30 12-20 7-21 6-22 4h-20l-25-5-18-6-25-12-16-10-16-12-12-11-6-7-9-16-2-7-1-14 2-17 4-20 6-16 6-11 10-13 7-6 19-10 15-4 7-1h20l16 4 14 7 13 11 9 12 9 19 5 16 6 21 5 5 2 1h7l12-5 12-9 6-7 6-10 9-20 13-36 7-22 7-25 7-33 7-44 6-53 6-58 9-92 13-133 8-86 7-82 4-56 3-58 2-67v-34l-1-2-9-1-60-2-41-1-1-4 4-13 6-37 5-38 6-2 32-3 49-3 21-2 5-2 4-10 9-32 17-62 11-36 11-29 14-30 10-18 8-14 20-28 12-14 12-13 14-14 22-18 17-11 15-9 21-10 19-7 24-7 25-5z" fill="#53CBE2"/>
<path transform="translate(627,566)" d="m0 0h48l30 2 25 4 56 14 23 11 22 13 17 12 11 9 19 19 11 14 12 19 12 23 10 24 6 20 6 29 6 43 1 10 1 22-1 476-1 6h-24l-50-2-40-1h-36l-6-266-3-108-2-96-2-37-3-16-12-36-8-17-10-15-10-11-16-11-15-8-12-5-20-9-24-8-18-4-17-2h-23l-24 3-23 6-15 6-23 12-15 10-17 14-8 7-8 8-10 13-7 10-14 26-9 20-8 20-4 14-2 20-2 42-3 90-3 119-3 175v23l1 14-7 1-68-3-40-1-19-1v-745l18 1 90 6 26 1 1 5-1 4-1 19-1 36-2 16 8-6 11-8 25-16 16-10 28-17 22-13 27-14 29-12 18-6 19-4 18-2z" fill="#020102"/>
</svg>
