<?xml version="1.0" encoding="UTF-8"?>
<svg version="1.1" viewBox="0 0 1935 2048" width="2400" height="2540" xmlns="http://www.w3.org/2000/svg">
<path transform="translate(81)" d="m0 0h248l15 3 16 6 14 9 10 9 8 9 8 13 6 15 3 14v687l3 13 7 14 8 10 11 8 10 5 10 3 7 1h60l162-1 14-3 12-5 13-10 8-10 7-15 2-10 1-682 3-17 6-16 8-13 11-13 13-10 16-8 12-4 12-2h248l16 3 15 6 13 8 10 9 7 7 9 14 7 16 3 13 1 12 1 682 3 11 6 12 11 12 13 8 13 4 655 1 17 2 15 5 14 8 12 11 8 10 8 16 3 9 2 12v1083l-3 15-5 13-8 13-11 12-13 9-13 6-16 4h-1797l-16-4-16-8-11-8-7-7-9-13-5-11-4-14-1-7v-1892l3-17 6-15 7-12 11-13 11-9 14-8 13-5zm1178 1237-14 2-16 5-16 8-13 9-14 14-7 10-9 17-5 16-2 12v205l3 15 5 15 8 15 11 14 9 9 14 10 16 8 17 5 15 2h194l20-3 17-6 16-9 10-8 12-12 9-13 8-16 4-13 2-11 1-13v-183l-1-14-4-17-5-13-6-11-9-12-9-10-13-10-12-7-19-7-18-3z" fill="#FE6600"/>
</svg>
