<?xml version="1.0" encoding="UTF-8"?>
<svg version="1.1" viewBox="0 0 2000 1346" width="1998" height="1546" xmlns="http://www.w3.org/2000/svg">
<path transform="translate(1481,211)" d="m0 0h14l11 4 9 7 9 9 12 18 16 27 10 16 13 22 12 20 7 11 2 1 9-1 31-8 30-8 68-18 21-5h20l10 3 8 5 5 5 5 10v14l-5 14-7 11-9 11-24 28-9 11-13 15-11 13-24 28-18 22-1 5 8 16 11 21 10 19 12 23 10 19 11 20 5 12 2 8v18l-3 10-6 9-5 6-10 7-9 4-12 2h-9l-13-2-25-7-45-14-33-10-4-4-8-45-3-16v-5l1-1h6l24 7 40 11 28 8h3l-1-5-9-16-8-16-13-25-10-19-15-28-4-8 1-6 9-10 9-11 13-15 9-11 9-10 9-11 13-15 9-11 9-10 4-5 1-4-21 5-83 22-29 8h-8l-5-6-13-22-8-13-42-70h-3l-12 66-10 58-3 14-6 5-33 10-50 16-48 15-2 1v3l16 6 12 5 27 11 36 14 10 4 1 5-11 7-51 33-8 5-8-1-26-12-41-18-23-11-11-8-10-10-7-11-4-11v-17l4-10 7-9 9-8 15-8 16-6 59-19 38-12 32-10 4-5 6-32 14-80 5-24 6-16 7-12 9-10 8-7 9-4z" fill="#E16A1A"/>
<path transform="translate(682,636)" d="m0 0h33l20 4 17 6 16 8 14 10 10 9 10 10 7 10 6 10 6 13 5 17 3 17v36l-5 25-5 15-9 19-9 14-10 13-11 12-13 13-13 10-16 10-16 8-24 8-16 3-22 2-21-1-20-4-19-7-15-8-7-5h-2l-2 9-10 74-2 18-3 5-2 1h-56l-4-2 1-14 11-85 15-115 6-35 6-20 8-18 10-17 11-14 9-10 12-12 13-10 14-9 10-6 25-10 21-5zm4 65-16 2-18 6-15 8-12 9-10 10-10 14-8 17-5 22v20l4 16 8 16 12 13 13 9 11 5 18 4h19l17-4 16-7 11-7 10-8 11-11 10-15 7-17 4-17 1-15-3-16-5-13-7-12-9-10-11-8-12-6-9-3-15-2z" fill="#434244"/>
<path transform="translate(435,532)" d="m0 0h21l17 3 17 6 16 10 15 14 13 16 8 11-2 5-16 12-18 13-13 10-12 9-5-1-9-14-8-10-13-9-9-3h-19l-11 4-8 6-7 8-3 9 1 10 5 9 9 11 13 15 14 15 16 17 10 10 7 8 12 13 11 15 9 17 4 13 2 13v21l-3 17-6 18-7 14-7 11-10 13-10 11-11 9-10 7-19 10-21 7-19 4-9 1h-26l-18-3-16-5-14-7-11-8v-2l-4-2-9-10-9-15-5-10-7-17v-5l8-5 14-8 12-6 22-12 9-5 5 1 8 16 6 11 11 12 10 6 10 3h16l13-4 10-5 10-8 7-9 4-10v-14l-3-10-9-13-11-13-12-13-9-10-11-12-12-13-11-12-9-11-8-10-6-10-6-15-3-11-1-7v-23l3-15 5-12 4-8 8-12 11-14 12-12 13-10 16-9 19-7 20-4z" fill="#434244"/>
<path transform="translate(1011,636)" d="m0 0h32l17 3 16 5 13 6 12 7 14 11 12 12 12 16 9 17 6 18 3 15v36l-5 42-8 62-5 37-3 7h-60l-2-2 1-15 11-83 4-34v-22l-3-17-5-15-7-13-9-10-9-7-10-5-16-4h-26l-17 4-18 8-10 7-11 9-8 9-9 14-7 16-4 18v20l4 17 6 12 8 11 9 8 13 8 14 5 10 2h18l15-3 17-6 13-8 9-7 6-5h2l1 5-3 19-7 52-3 5-14 6-22 6-13 2-20 1-23-2-17-4-16-6-15-8-12-9-10-9-7-7-13-18-9-19-5-16-3-18v-31l4-23 8-24 8-16 9-15 10-13 11-12 9-9 14-11 19-12 17-8 17-6 22-5z" fill="#434244"/>
<path transform="translate(1446,545)" d="m0 0 4 1-1 17-9 68-9 69-1 11 5-3 9-10 7-8 11-12 7-8 11-12 9-10 7-8 11-12 7-8 12-13 7-8 9-11 4-1 2 1 7 43 3 17v8l-9 10-16 17-9 9-7 8-11 11-1 2h-2l-2 4-15 15-7 8 1 5 11 15 10 14 12 17 10 14 12 17 20 28 12 17 13 18 14 20 10 14 5 6 1 5-2 1h-78l-7-3-7-10-13-20-10-15-19-29-22-33-10-16-7-10-11-17-3-1-3 21-12 92-5 36-1 3-2 1h-67l-2-2 1-15 8-61 12-91 15-114 6-46 2-7 7-6 16-10 15-10 17-11 11-7z" fill="#434244"/>
<path transform="translate(1279,643)" d="m0 0h52l3 2-1 14-6 46-2 4-2 1-43 1-7 3-7 6-4 9-8 59-13 99-5 39-1 3-2 1h-62l-2-2 1-15 13-99 11-82 3-19 4-13 6-12 9-12 4-5 8-7 11-8 16-8 14-4z" fill="#444345"/>
<path transform="translate(1018,500)" d="m0 0h13l2 3-2 12-2 14 1 2h30l2-2 5-26 3-3h12l2 2-1 11-11 62-3 5-6 1-7-1-2-3 2-12 2-11-1-5h-31l-3 12-3 16-2 3-9 1-6-2 1-11 11-63z" fill="#4C4B4D"/>
<path transform="translate(639,500)" d="m0 0h16l3 4 12 66 1 8-1 2-13 1-4-3-3-13-1-1h-24l-3 3-6 11-5 3h-11l-3-2 1-6 8-14 18-34 13-23zm4 26-5 7-4 8v5l1 1h10l3-3-2-15z" fill="#4B4A4B"/>
<path transform="translate(838,500)" d="m0 0h15l3 3 2 9 11 60v7l-4 2h-9l-4-2-3-13-2-2h-24l-5 8-4 7-6 2h-10l-2-1v-6l9-16 11-20 6-12 12-22zm3 27-4 5-5 10 1 5h11l2-2-1-16-1-2z" fill="#4A494B"/>
<path transform="translate(1137,500)" d="m0 0h40l2 3-2 11-2 2-24 1-3 5-1 9 22 1 2 2-1 9-3 5-22 1-2 2-1 11 1 1 22 1 2 1v7l-2 7-7 2h-32l-4-1-1-6 9-50 4-21z" fill="#4B4A4C"/>
<path transform="translate(727,500)" d="m0 0h29l8 3 5 4 4 7 1 4v8l-4 12-5 6-8 5-8 2-14 1-2 2-5 25-5 2h-8l-3-2v-8l8-45 4-22zm15 16-4 4-2 11 1 3 2 1h8l6-3 3-5v-6l-4-4-2-1z" fill="#4B4A4C"/>
<path transform="translate(943,499)" d="m0 0h17l8 4v9l-2 7-4 1-5-3h-13l-10 5-7 8-3 7v13l3 7 6 5 5 2h7l8-3h6v9l-2 7-5 3-3 1h-19l-12-6-8-9-4-9-1-5v-13l4-13 7-11 9-8 9-5z" fill="#4B4A4C"/>
</svg>
