<?xml version="1.0" encoding="UTF-8"?>
<svg version="1.1" viewBox="430 100 1100 761" width="585" height="435" xmlns="http://www.w3.org/2000/svg">
<path transform="translate(1073,197)" d="m0 0h51l29 3 32 6 23 6 30 10 20 9 16 8 15 8 24 16 14 11 11 10 8 7 12 12 7 8 9 10 9 11 14 17 11 14 14 18 13 17 14 18 11 16 11 17 10 18 8 16 9 22 13 40 8 29 5 24 5 38 3 23 1 12v26l-2 18-5 23-7 21-9 19-9 14-10 13-9 10-7 7-15 11-19 11-19 9-30 10-23 5-21 3-10 1h-23l-24-3-25-5-25-6-25-8-27-10-33-15-36-18-23-11-33-15-7-3-40 40-8 7-15 14-11 9-12 10-18 13-17 11-18 10-18 8-19 6-26 6-28 4-34 2-38-3-30-5-25-6-33-11-26-11-24-13-24-16-11-9-12-11-10-10-9-11-13-18-11-18-9-17-11-26-10-30-7-28-5-31-1-10v-27l3-19 6-21 8-17 9-13 9-11 8-8 14-11 13-9 15-9 29-15 29-14 26-10 24-8 41-11 57-14 15-4 11-24 9-19 14-24 14-21 9-12 13-15 8-9 8-7 14-12 16-12 15-10 19-11 15-8 24-10 33-11 26-6 25-4z" fill="#E0DF71"/>
<path transform="translate(1105,221)" d="m0 0h25l32 3 26 4 25 6 23 8 29 14 17 11 16 13 27 27 7 8 11 12 7 8 12 14 9 10 9 11 11 13 24 32 32 48 14 24 12 24 10 25 10 31 7 30 5 32 3 35 1 18v17l-2 21-4 17-6 16-8 15-9 12-11 12-8 8-18 13-18 10-21 9-22 7-18 4-21 3-12 1h-16l-28-3-25-5-17-5-21-9-27-13-32-14-40-19-33-16-13-6 1-4 7-8 4-4 11-14 12-15 14-19 20-30 10-18 8-19 9-28 6-24 5-26 3-25v-36l-3-19-6-20-8-17-8-11-7-7-15-10-23-11-25-9-17-4-10-1h-43l-42 4-45 6-57 9-44 8-15 3-4-1 15-27 11-18 13-19 11-14 12-13 15-15 17-13 14-10 19-11 23-12 27-11 29-9 29-7 22-4z" fill="#E0DF71"/>
<path transform="translate(1073,197)" d="m0 0h51l29 3 32 6 23 6 30 10 20 9 16 8 15 8 24 16 14 11 11 10 8 7 12 12 7 8 9 10 9 11 14 17 11 14 14 18 13 17 14 18 11 16 11 17 10 18 8 16 9 22 13 40 8 29 5 24 5 38 3 23 1 12v26l-2 18-5 23-7 21-9 19-9 14-10 13-9 10-7 7-15 11-19 11-19 9-30 10-23 5-21 3-10 1h-23l-24-3-25-5-25-6-25-8-27-10-33-15-36-18-23-11-33-15-7-3-40 40-8 7-15 14-11 9-12 10-18 13-17 11-18 10-18 8-19 6-26 6-28 4-34 2-38-3-30-5-25-6-33-11-26-11-24-13-24-16-11-9-12-11-10-10-9-11-13-18-11-18-9-17-11-26-10-30-7-28-5-31-1-10v-27l3-19 6-21 8-17 9-13 9-11 8-8 14-11 13-9 15-9 29-15 29-14 26-10 24-8 41-11 57-14 15-4 11-24 9-19 14-24 14-21 9-12 13-15 8-9 8-7 14-12 16-12 15-10 19-11 15-8 24-10 33-11 26-6 25-4zm32 24-31 3-31 6-27 7-30 10-25 11-23 12-19 12-21 16-12 11-15 15-9 11-11 15-13 20-12 21-9 16 4 1 47-9 55-9 59-8 42-4h43l15 2 21 6 25 10 19 10 12 9 10 11 9 17 7 21 3 15 1 8v36l-3 25-6 31-8 29-9 26-9 19-11 18-15 22-16 21-7 9-13 16-3 5-10 10v3l40 19 37 18 29 13 20 9 32 15 21 7 23 5 22 3 12 1h16l27-3 20-4 20-6 16-6 19-9 13-8 12-9 10-9 9-9 10-13 9-16 6-15 4-15 2-13 1-13v-17l-3-42-3-26-6-31-7-26-11-32-11-24-13-25-15-24-21-31-10-14-13-17-11-14-24-28-9-10-7-8-12-14-7-7-7-8-24-24-17-13-19-11-23-11-30-10-29-6-33-4-14-1zm-80 167-32 3-47 6-52 8-42 7-45 9-68 16-53 14-36 12-22 9-27 13-16 8-22 12-18 12-11 9-17 17-10 15-8 17-4 13-3 16-1 10v21l3 23 6 22 8 20 10 19 9 12 9 11 10 10 14 11 18 11 19 9 19 7 27 7 29 5 32 3 20 1h24l33-2 33-5 30-7 31-9 34-13 27-12 16-8 28-15 24-14 27-16 22-15 16-12 16-13 13-12 14-14 18-22 14-21 12-22 9-20 9-25 5-20 2-16v-10l-3-18-6-16-8-13-9-10-12-10-16-9-12-6-22-8-19-4-9-1z" fill="#1C2813"/>
<path transform="translate(844,425)" d="m0 0h27l19 2 25 5 19 8 21 11 17 11 13 10 11 10 9 11 9 12 12 19 10 21 3 12v16l-4 16-5 12-9 14-9 10-11 11-16 12-17 10-15 8-25 10-20 6-25 5-18 2-29 1h-27l-22-3-25-5-23-8-26-12-19-10-26-14-7-6-6-10-1-4v-22l5-24 8-23 12-25 10-15 12-14 9-10 11-11 8-7 17-12 18-10 23-9 26-7 19-3z" fill="#5E3716"/>
<path transform="translate(1635,993)" d="m0 0h132l22 3 18 6 13 7 11 9 9 13 5 14 2 11v14l-4 15-6 12-9 10-11 7-3 3 11 4 11 7 8 8 6 10 5 15 1 9v10l-2 17-4 12-7 12-12 12-14 8-14 5-14 3-19 2h-134l-1-1v-31l1-1 23-4h3v-184l-23-4-4-1zm80 40-1 5v62h51l12-4 8-6 6-7 3-11v-10l-3-11-6-8-10-6-11-3-13-1zm-1 104v73l1 1h26l31-1 12-3 10-6 6-8 3-9 1-12-3-14-5-10-9-7-13-4z" fill="#FDFDFD"/>
<path transform="translate(1105,221)" d="m0 0h25l32 3 26 4 25 6 23 8 29 14 17 11 16 13 27 27 7 8 11 12 7 8 12 14 9 10 9 11 11 13 24 32 32 48 14 24 12 24 10 25 10 31 7 30 5 32 3 35 1 18v17l-2 21-4 17-6 16-8 15-9 12-11 12-8 8-18 13-18 10-21 9-22 7-18 4-21 3-12 1h-16l-28-3-25-5-17-5-21-9-27-13-32-14-40-19-33-16-13-6 1-4 7-8 7-1 32 13 36 15 32 13 30 12 32 13 30 10 12 2h37l25-3 25-6 18-6 19-9 17-12 10-9 7-8 9-12 9-16 5-13 5-19 3-26v-42l-3-29-3-17-6-27-9-27-9-20-10-19-9-15-15-24-26-36-10-13-14-19-10-13-6-8v-2h-2l-8-11-14-17-14-15-7-8-13-12-13-10-15-11-16-10-18-10-19-8-23-6-16-3-27-3-20-1h-28l-23 3-36 8-35 10-22 8-18 8-16 8-14 8-14 10-11 9-13 12-12 13-13 17-11 17-12 21 4 2-37 7-4-1 15-27 11-18 13-19 11-14 12-13 15-15 17-13 14-10 19-11 23-12 27-11 29-9 29-7 22-4z" fill="#A1AF46"/>
<path transform="translate(1403,993)" d="m0 0h130l19 3 19 7 13 8 11 9 11 11 10 15 7 16 4 17 1 10v65l-2 16-5 17-7 14-10 14-12 12-15 10-15 7-19 5-17 2h-122l-1-1v-31l27-6 1-183-24-4-4-1zm80 40-1 175 1 3h23l22-1 13-4 12-7 8-8 8-13 5-16 1-6v-69l-4-16-7-14-6-8-9-7-9-5-11-3-9-1z" fill="#FDFDFD"/>
<path transform="translate(1025,388)" d="m0 0h40l20 3 20 6 17 7 18 10 14 11 8 8 9 14 5 12 4 16 1 8v10l-3 21-6 21-9 24-12 25-10 17-12 17-8 10-12 14-19 19-11 9-16 13-20 14-17 11-27 16-25 14-22 12-27 13-31 13-23 8-30 9-33 7-27 4-33 2h-24l-34-2-31-4-29-6-23-7-23-10-15-8-14-10-13-11-9-9-10-13-9-14-10-21-7-21-4-18-2-17v-21l3-21 4-15 7-16 8-13 7-9 17-17 15-11 20-12 23-12 16-8 26-12 27-10 29-9 46-12 55-13 42-9 45-8 65-10 55-7zm-24 17-25 2-40 6-37 7-14 3-11 1-3 1h-27l-19 2-20 4-21 6-24 10-19 11-8 3-28 7-53 17-26 11-20 11-21 14-13 10-14 12-8 8-12 16-7 12-7 19-4 19v24l4 20 8 23 10 19 8 12 7 9 9 10 12 12 13 10 19 11 21 9 23 6 23 4 21 2h50l35-2 25-3 31-6 28-8 23-8 30-13 42-21 22-12 23-13 19-12 15-10 14-10 13-10 14-12 12-11 13-14 13-17 12-18 14-27 9-24 5-20 2-12v-23l-4-16-6-11-11-13-12-10-14-9-17-8-21-6-23-3-17-1z" fill="#A1AF46"/>
<path transform="translate(1136,1054)" d="m0 0h72l1 5v26l-3 2-22 4-2 1-1 166-3 14-4 11-7 12-11 12-13 9-13 6-23 5-18 1-22-3-16-4-16-6-4-2 1-8 7-28 1-2 9 3 20 6 13 2h16l13-4 7-5 6-10 3-11 1-7v-14l-8 7-11 7-13 4-9 1h-9l-15-2-14-5-13-9-7-7-9-14-6-13-5-21-1-7v-39l3-18 5-16 8-16 8-11 9-9 14-8 15-4h25l13 4 11 7 13 13 3-22zm-48 42-12 6-6 8-6 13-3 16-1 25 2 17 4 13 5 8 9 8 11 3h11l11-3 10-6 5-6 1-2v-82l-4-6-9-8-11-4z" fill="#FDFDFD"/>
<path transform="translate(289,992)" d="m0 0h53l4 8 10 30 17 48 21 61 13 37 12 34 2 6 11 1 6 1v31l-1 1h-86l-1-1v-30l5-2 12-1-16-51h-71l-12 36-5 14 17 3 1 1v30l-2 1h-87v-32l17-3 4-8 19-55 17-48 17-49 17-48 5-14zm26 61-12 36-11 34v2h46l-1-6-9-29-8-25-3-11z" fill="#FDFDFD"/>
<path transform="translate(899,1055)" d="m0 0h24l13 3 11 6 10 9 6 8 6 14 3 16 1 12 1 90 21 4 3 3v29l-1 1h-98l-1-1v-31l20-5 1-1v-90l-3-12-6-8-8-4-4-1h-18l-12 5-9 8-1 98 1 5 17 4 3 3v29l-2 1h-95l-1-1v-31l22-5h2v-118l-21-3-6-2v-32h75l2 6v19l7-6 6-7 13-9 10-4z" fill="#FDFDFC"/>
<path transform="translate(1123,358)" d="m0 0h15l16 3 14 5 16 8 17 10 14 11 13 12 10 11 10 14 9 14 11 19 10 21 7 22 3 21v12l-2 16-6 20-8 16-9 14-11 13-13 11-14 8-11 4-14 2h-14l-24-1-2-1 15-45 6-24 5-26 3-25v-36l-3-19-6-20-8-17-8-11-7-7-15-10-23-11-25-9-17-4-10-1v-1l8-2 8-5 17-7 15-4z" fill="#A1AF46"/>
<path transform="translate(654,1055)" d="m0 0h31l17 3 16 7 13 9 7 7 8 14 4 16 1 105 15 2 1 2v29l-1 1h-59l-2-1-5-16-4 2-8 7-15 8-11 3-17 2-2-1-16-2-11-4-10-6-5-4-8-11-5-12-2-9v-18l4-13 3-6 9-10 9-7 14-7 12-4 17-3h43l-1-25-5-10-7-6-10-3h-14l-13 3-16 8-11 7-5 3-12-16-10-13-2-5 11-8 15-8 20-7zm7 112-9 3-9 8-4 10v12l4 8 7 5 7 2h11l13-4 10-6 6-6v-32z" fill="#FDFDFD"/>
<path transform="translate(1286,1055)" d="m0 0h30l16 3 16 7 14 10 7 7 9 13 7 14 4 13 2 10 1 10v27l-4 22-5 13-7 13-8 10-11 11-14 8-15 5-10 2-10 1h-14l-16-2-11-3-12-5-13-9-11-11-9-14-5-11-4-14-3-18v-26l3-19 6-17 7-13 8-10 11-11 13-8 13-5zm9 40-11 4-8 6-6 9-5 15-2 10v30l3 15 5 13 5 7 8 6 9 3h17l10-4 7-6 7-12 3-9 2-11 1-11v-11l-2-17-4-14-6-11-9-8-13-4z" fill="#FDFDFD"/>
<path transform="translate(554,1055)" d="m0 0h19l7 2-2 21-3 26-1 1h-28l-10 3-9 7-3 7v91l21 4 3 2v30l-2 1h-98l-2-1v-30l8-3 15-3 1-2 1-116-10-1-16-3-1-1v-32h75l1 1 2 21 1 2 7-11 10-10 10-5z" fill="#FEFEFE"/>
<path transform="translate(844,425)" d="m0 0h27l19 2 25 5 19 8 21 11 17 11 13 10 11 10 9 11 9 12 12 19 10 21 3 12v16l-4 16-5 12-9 14-9 10-11 11-16 12-17 10-15 8-25 10-20 6-18 4-39 2h-3v-2l13-2h12l9-2 5-2h5l7-3 10-2 10-4 9-2 6-3 1-2 10-5 10-4 4-3 11-6 13-10 5-2v-2l6-4h2l1-3 8-6 5-5 10-13 6-12 2-6h2l2-10 2-6 2-2-1-4-3-7-1-1v-5h-2l-5-10-6-10-6-11-4-5-9-12-1-3-3-1v-2l-3-1-4-5-6-5v-2h-2v-2l-4-2-6-4v-2l-4-2-10-6-7-4v-2l-6-2-16-9-12-5-14-4-2-3-13-1-9-3v-2l-39-1v-1z" fill="#592F16"/>
<path transform="translate(825,427)" d="m0 0h12l-3 2-19 4-16 5-18 7-16 8-19 9-9 6-2 3h-2l-2 4-4 4h-2v2l-4 3h-2l-1 3-6 5-5 6h-2l-1 4-2 1-2 4-5 5h-2l-3 9h-2l-2 6-3 5h-2l-1 6-3 5-10 22-2 9h-2v3h-2l-1 7-3 4v-8l6-20 8-20 11-21 10-14 10-11 7-8 12-12 8-7 17-12 18-10 23-9 26-7z" fill="#592F16"/>
<path transform="translate(655,613)" d="m0 0 2 2v4h2v3l5 2v2l4 1 11 7 22 12 12 6 4 3v2l4 1 1 2 9 4 7 3 13 6 10 3 12 3 15 4 6 2v1h-13l-22-5-20-7-26-12-19-10-26-14-7-6-6-10z" fill="#5A2F16"/>
<path transform="translate(781,686)" d="m0 0 12 1 16 2h27l41-1v1l-8 1-28 1-4 1h-26l-30-5z" fill="#A1AF46"/>
</svg>
