<?xml version="1.0" encoding="UTF-8"?>
<svg version="1.1" viewBox="0 0 2048 1609" width="640" height="503" xmlns="http://www.w3.org/2000/svg">
<path transform="translate(991,109)" d="m0 0h7l1 1v27l5 5 19 14 2 2 4-1 16-13 10-7 2-1 1-26 1-1 27 1v28l-29 1-6 4-16 13-5 4-1 2 4 2 17 13 12 9 11 8v-3l15-1-1-9-10-35-1-7 3 4 9 31 4 16 27-1 6-9 8-9 10-14 1-29h28v26l-7 2h-18l-10 14-12 14-2 3v20l50-14 8-2h4l-3-7-11-19-4-6 1-2 6 8 11 19 3 5 16-4 14-4 7-1v-18l1-1h27v27h-14l-1 17-2 24-2 10h22v11l14-7 16-9 12-6 1-20h26l2 1v25l-1 2h-10l3 33v7l41 6v-11h17l10 1v26l-1 1h-20l-2 6-16 28-4 8h9l1 21 22-2 32-2v-14l27 1v26l-1 1h-26l-1-5 1-7-20 2-28 2h-7l1 15 17 9 18 10 11 6 12-27 2-4 2 1-11 26-2 6 10 6 21 12 9 6-1-4 1-2h25l2 1v26l-1 1h-19l-11-1-36 24-16 11-5 2v18l9 1 53 11 11 3 1-10 1-1h23l4 1v26l-1 1h-29l-26 26-1 3h2l26 26v2l28 1v26l-1 1h-25l-1-1v-9l-62 12-12 1 1 20 27 18 22 14 6 5 1-2h28v27h-27l-2-4-13 8-19 11-4 2 1 5 9 20 3 7-1 3-8-16-7-15v-2l-27 15-10 6-7 4h-2v15l23 2 27 3 4 1v-11l1-1h26l1 3-1 24h-27v-14l-18-1-28-3-8-2v22l-9 1 8 16 10 17 3 9 21 1v26h-27l-1-9-12 1-22 3h-5l-1 11-2 23-1 5 10 1 1 1v25l-7 1h-18l-3-1v-19l-6-2-23-12-10-6-3-1v11h-22l2 13 1 10v28h15v27h-27l-1-1v-15l-27-8-9-2-13 22-6 11 3 2v26l-26 1-1-1-1-29-9-12-11-14-4-5 1-3 8 10 14 18 5 7 19 1 1-5 9-16 8-13 1-3-10-1-48-14-5-2v16l-5 2-26-2-2 11-10 36-3 7-1-4 12-42 2-8-3 1-17-1-10 9-10 8-16 13-3 3 13 11 10 8 3 2 29 1v27l-26 1-1-1-1-23-5-5-10-8-14-11-5 3-16 13-8 6-1 25h-28v-26l1-1h6l-13-52-2-2-24 1-6 9-11 14-8 11-1 29-26 1-1-1v-27l3-2-12-19-7-12-5 1-31 9h-2v17h-27l-1-11 1-16h14l1-24 3-29h-22v-10l-11 6-29 16-2 1-1 20h-27v-27h11l-1-2-4-39-40-6 1 10-1 1h-26l-1-1v-26l2-1h19l3-7 14-26 5-9-8-1-1-1v-20l-43 4h-11v14l-1 1h-26l-1-9 1-19h18l4-10 11-25-6-2-24-13-10-7-1 5h-27l-1-1v-26l3-1 25 1h3l33-22 22-15h2v-19l-74-13v9l-1 1h-26v-27l27-1 12-12 8-7 9-9 1-2-4-2-14-14-8-7-4-3-27-1v-28h26l1 1v10l16-4 55-11h3l-1-19-48-32-7-4-6 2h-22l-1-1v-27h27l2 5 6-5 22-13 7-4h2l-1-5-12-27v-2h2l13 29v2l21-12 15-9 7-4h2l1-15-20-2-33-2-1 11h-27v-27h27v14l28 1 25 2v-20l1-1h9l-9-17-10-17-2-3 1-3 8 13 13 23 1 3h15l6-49 2-10-35 6h-4v12l-1 1h-27v-25l1-3 27 1v12l30-5 8-2 1-2 4-32 1-6-11 1v-28h11l16 1 1 3v16l16 8 17 8 7 3v-10l1-1h22l-3-31-1-17-13-1-1-2v-24l1-1h27v17l7 1 30 8 2-5 13-22 4-5-4-3v-26l2-1 26 1v29l7 8 11 14 6 8h-3l-11-14-9-11-4-5-2-1h-16l-14 23-6 10 7 3 27 7 26 8 2 1v-18l3-1 16 1h13l1-10 11-40 1-2h-8v-28zm-10 29-3 9-11 41 1 3 15 1h3l13-10 14-11 12-10-5-5-24-18zm45 24-11 9-28 22-4 3v37l13 10 16 12 13 10 5 1 17-13 24-18 2-1v-38l-10-7-13-10-18-14-4-3zm-193 19v9h-12l3 49h16l6-11 10-16 12-20v-2l-14-3-19-6zm390 0-27 8-7 2 4 8 17 28 7 12h16l3-32 2-19-12-1-1-6zm-353 11-7 10-9 16-10 15-3 6h9v42l11 7 15 11 14 10 4 3h2l1-9h40l3-2 12-58v-3l-18-1v-29l-7-3-35-10-19-5zm315-1-16 5-44 12-2 2v29l-19 1 10 51 2 11 12 1h32l1 8 5-2 10-7 18-13 12-8 1-5-1-37h10l-8-14-11-18-9-14zm112 39-41 22v14l20 4 39 6h2v-10l-3-31h-15v-5zm-538 3v6l-4-1h-8l-2 1-4 25-1 14 15-2 43-8 2-1 1-13-8-5-19-9-12-7zm313 3-17 13-18 14-6 4 2 4 21 16 12 9 14 11 5 3 1-7 28-1-2-14-9-48-29-1zm-88 0-2 3-28 1-12 58v4l4 1h25l1 5 5-2 28-21 21-16v-2l-11-8-21-16-7-5-1-2zm272 32v20h-20l1 18 5 47 6 2 50 6h5v-20h21l-1-17-4-40-1-6-13-3-45-7zm-460 1-43 8-10 2-3 1-3 19-4 36-1 6 21 1v18l5 1 38-4 15-2 4-2 7-60v-4l-21-1v-19zm232 1-19 14-18 14-16 11-3 2-1 70 11 12 13 1h78l12-12 1-3-1-67-19-14-18-14-16-12zm291 8 7 63h15l14-24 9-16v-2l-4-2v-13l-25-4-11-2zm-469 5-1 5-25 1-3 22-4 36v7l69-8 10-1v-30l-15-11-19-13-10-8zm354 1-16 11-15 11-12 8v30l2 1 53 6 24 3-1-15-5-50h-27l-1-5zm-43 62-1 31-32 1 6 75 1 5 76 9h5l1-1v-31l10 1h22l-1-15-6-55-2-10-19-3-56-7zm-268 0-72 9-5 2-4 35-4 39v5l33 1v30l23-2 42-5 14-2 5-47 3-33h-32v-32zm350 10 4 42 4 37 1 1h27l7-10 11-16 12-18-1-2h-5v-27l-14-2zm-430 0-33 4-25 2-2 1v27h-6l7 11 7 10 13 19 5 6h26l1-1 5-46 3-26v-7zm119 22-2 11-5 52-1 16h10l39-4 1-1 1-56 1-4-6-8-5-6zm159 0-8 10-3 4v2l2 1 1 57 2 1 39 4h7l-2-28-4-45-1-6zm262 3v9h-40l-9 12-10 15-12 17v2h11l-1 29v17l5 3 27 7 8 2 1-16h35l3-3 18-43 10-22-1-5-11-6-17-9-15-9zm-652 1-22 13-19 11 1 6 23 53 6 12 1 1h26l7-1v17l11-2 21-6 9-3v-48l8 1 3-2-7-9-15-22-7-10-2-3-41-1-1-7zm700 26-7 15-13 31-9 21v2l9 1 1 9 11-7 11-8 33-22 5-2 1-2v-13l-3-3-15-9-21-12zm-745 1-26 15-12 8-1 11 1 6 8 4 17 11 18 12 12 9h2v-8l11 1 2-2-11-25-7-15-11-26zm313 47-45 5-2 10-3 33v9l46 1v108h-46l1 16 3 32 2 2 39 4h10v-46l10 1h99v46h14l34-3 1-2 4-50-1-1h-43v-108h44l-4-50-1-2-44-5h-4l-1 46h-108v-46zm167 6v12l3 38 1 1 63 1 13-10 1-15v-18l-13-2-62-7zm-220 0-62 7-12 1-1 1v33l13 12 3 1v-4h57l1-1 4-39v-11zm376 23v26h-11l6 11 18 27 11 17 5-5 10-15 11-17v-2h-9l-1-31-8-3-26-7zm-528 0-39 11-1 1v30h-6l2 5 11 17 9 14 3-1 26-39 7-11v-1h-11v-26zm618 22v16l5 5 17 16 18 18 4 1 24-24 6-5 1-3v-7l-8-3-47-10zm-712 1-65 13-4 2v12l7 8 8 7 7 7 8 7h3l16-15 19-19 5-4 1-3v-15zm544 1-8 7-4 3-1 7v91l13 12 3-1 1-4h62l7-10 22-34 7-11-4-7-10-15-7-11-10-15-6-10-61-1zm-436 2-5 9-18 27-11 16-2 4 8 11 11 17 14 22 5 7h64l9-8 3-2 1-24v-68l-13-11zm-104 16-27 27-8 7-5 6 16 15 12 11 8 8 4 3h41l7-10 14-21 4-7-4-7-10-15-10-16-1-1zm671 0-10 15-12 19-5 8 7 11 16 24h42l12-11 12-12 8-7 8-8-2-4-9-9-8-7-17-17-3-2zm79 40-10 9-21 21-10 8-1 3v16h8l52-10 12-2 2-1v-14l-11-12-3-1v-2l-8-7-8-8zm-792 1-6 5v2l-4 2-21 21v13l21 4 45 8 8 1v-16l-7-8-15-14-8-8-8-7zm109 1-7 9-10 16-6 9v1h7l-1 5v24l1 3 29 9 11 3 1-24h7l4-2-17-26-18-27zm575 3-13 20-11 17-9 14v1h10l-1 27 7-1 30-11 4-2 1-32 4-1-2-6-14-20-4-6zm-461 47-13 10-1 2v32l1 1 71 7h7l-4-44-2-6-57-1zm293 2-8 1-2 13-2 26v12h10l49-4 18-1 4-2v-31l-10-9-6-4zm-423 17v15h-26l-9 1-8 16-15 35-8 19 1 4 19 10 22 13h3v-10h42l13-18 12-17 4-7h-10v-49l-34-11zm604 2-30 11-6 2-1 2v44h-11l2 4 9 12 13 18 6 8h42v9l6-2 15-9 23-13 1-2-13-29-9-21-8-19-5-2h-30v-13zm-655 6-18 13-38 25-3 1-1 14 2 4 18 10 21 12 3-1 12-29 17-38 1-3h-13v-8zm708 2-1 6h-12l2 6 13 29 11 26 4 9 5-2 16-9 16-10 4-2v-15l-19-13-17-11-15-10zm-541 20v31h-33l3 31 4 39 1 6 51 6 24 3h5v-31h32l-1-16-6-61-7-2-64-6zm367 3-65 5-8 1-3 30-3 34v12l31 1 1 30 19-2 60-7 2-5 6-55 2-16-33-1v-27zm-284 5 7 70 1 7h33l10-12-1-61-40-4zm205 1-46 4-1 59 9 11 2 2h31l1-2 5-57 1-16zm-351 22-9 12-14 20-6 8v2l4 1 1 27 44 4 16 1-1-14-5-49-1-12zm474 0-3 21-5 47v6h12l46-5 1-1 1-24 4-2-2-5-14-18-11-16-2-3zm-594 29-8 16-7 15v3h7v11l52-4 2-1v-14l-11-7-26-14zm323 11-10 11-1 3 1 1v61l2 4 9 6 17 13 13 10 15 12 4-1 16-12 15-12 20-15 3-2 1-64 1-2-7-9-3-3-10-1zm321 30-46 5-10 1-3 3-3 22-4 38v5h21l-1 3v17l11-1 48-7 2-1 8-64h-22v-21zm-548 2v19h-22l7 65 54 8 8 1v-20l20-1 1-5-7-59-2-3-39-4zm63 6 2 23 4 37 2 6h24l1 4 5-2 36-26 5-4v-29l-11-2-64-7zm415 0-70 8-1 1-1 8v20l10 8 19 13 13 10 4 2 2-4h25l1-1 7-65zm-515 13-5 8-12 22-5 8-3 7 5 1v12l4 2 36 5v-9l-4-37-2-19zm610 0-3 14-5 42v7l17-1 23-4v-13l4-2-1-5-14-25-7-13zm-166 28-1 1v10l-42-1-3 8-10 51v4l5 1h13v30l7 3 46 13 11 3 7-10 14-25 8-12v-2h-10l1-16v-25l-11-9-17-12-16-12zm-266 0-36 26-9 6v41l-9 1 2 4 15 25 9 16 5 5 24-7 32-10 6-2v-32l2 1h15l1-1-1-10-8-43-2-9-10-1h-35v-10zm77 2-1 1v8l-28-1 1 9 10 54 28 1 3 3 12-10 16-12 13-10-1-3-52-40zm111 1-17 13-28 22-7 5 1 3 11 8 13 10 10 8 7 5 1-4 27 1 2-1 10-53 2-9-4-1h-25l-2-7zm228 35-32 5-20 3-3 1v14l19 10 17 9 6 3v-6h15l1-4 3-35zm-572 1 4 41 15 1 2 4 14-8 23-13 4-2v-14l-6-2-47-7zm288 7-11 9-16 12-13 10-4 4v33l2 5 10 8 14 11 9 8 9 7 4-1 13-11 11-9 14-11 4-2 1-4v-34l-5-5-14-11-17-13-8-6zm-202 28-1 4-3 35v14l10 1 1 7 7-1 26-8 3-2-2-5-11-20-12-19-3-6zm393 0-12 20-11 19-5 8v3l27 8 7 2v-9h12l-1-30-2-20-1-1zm-288 33-44 14-14 4 2 5 17 29 1 1h18l20-26 6-8v-2l2-1-3-1-1-15zm53 14-16 1 2 11 11 44h20l13-11 13-10v-3l-9-7-13-11-14-11-4-3z" fill="#4B74B6"/>
<path transform="translate(930,379)" d="m0 0h1v10l-5 52-2 16 49-5 1-56 1-4-6-8-2-2v-3l4 1 7 7 4 5 13 1h78l5-5 8-9h4l-2 4-8 11 3 1v57l41 4 7 1-2-16-4-45v-17l4 1 6 73v5l16 1 60 7 4 1v3h-11l-62-7-6-1 4 50 63 1 9-7h3l-1 4-8 7-3 2-1 7v91l12 11 2 2v3l-4-1-9-8-2-1-61-1-4 51 59-5h20v3l-32 3-40 3h-8l-1 19-4 45-2 10h-3v-11l5-58-1-4-36 3h-10v59l8 10v1h-5l-9-10-10-1h-86l-9 10-1 2h-4l1-4 6-7v-61l-17-1-33-3 1 2 6 59v14l-3-1-2-13-6-61-36-4-34-3-8-3v-2h11l60 6 7 1-2-12-3-32-1-5-57-1-2-1-11 8h-2l1-4 7-7 5-3 1-24v-68l-11-9-4-5v-2l4 1 11 9 1-3 57-1 5-50-12 2-53 6h-10l-2-3 12-2 52-6 14-1 1-17 6-61zm39 77-45 5-2 10-3 33v9l46 1v108h-46l1 16 3 32 2 2 39 4h10v-46l10 1h99v46h14l34-3 1-2 4-50-1-1h-43v-108h44l-4-50-1-2-44-5h-4l-1 46h-108v-46z" fill="#3E6CA4"/>
<path transform="translate(991,109)" d="m0 0h7l1 1v27l5 5 19 14 2 2 4-1 16-13 10-7 2-1 1-26 1-1 27 1v28l-29 1-6 4-16 13-5 4-1 2 4 2 17 13 12 9 11 8v-3l15-1-1-9-10-35-1-7 3 4 9 31 4 16 27-1 6-9 8-9 10-14 1-29h28v26l-7 2h-18l-10 14-12 14-2 3v20l50-14 8-2 4 1-16 5-44 12-1 1-1 29-18 2-2 1v-2h-29l-3-6h2v-38l-5-2-36-28-4-3-5 2-9 8-13 10-14 11-3 2v37l2 2-4 5h-28v5l-2-3v-2h-18l-1-3v-27l-23-7-37-10-4 1-16 27-10 15-1 2 8 1v42l4 2-2 1-2-1v5l-1 1h-25v5l-2-3v-2h-21l-1-1v-17l1-2-41 8-17 3h-3l-1 10-4 34-2 16 20 1 1 1v18l2 2-3 1v27l-5 1v4l-3-4-41-1-1-1v-7l-16 9-13 8-12 7h-2l5 13 20 46 6 12h33v17l3 1-2 2-1 30h-6l-1 3-2-2h-41l-27 27-8 7-4 5 15 14 12 11 8 8 4 3h41l4-1v1l6 1v32l6 1-4 2-2-1v15l-2 1h-24l-9 1-13 29-15 35-2 5v3l19 10 22 13 2 1 1-10 45-1 5 2 1 27 3 2h-4v19l-21 1 6 57v7l12 1 42 6 8 2-1-20 1-1 20-1h4 24l1 5 4-1 1 2-4 2v41l-1 1h-9l11 17 14 24 5 8 35-10 26-8h2v-32h17l2-5h1v5h28l5 5-3 3v33l2 5 9 7 14 11 9 8 9 7 4-1 13-11 11-9 14-11 4-1v-40l-3-1 4-5h29v-6l2 4v2l18 1 1 30 62 18v1l-10-1-48-14-5-2v16l-5 2-26-2-2 11-10 36-3 7-1-4 12-42 2-8-3 1-17-1-10 9-10 8-16 13-3 3 13 11 10 8 3 2 29 1v27l-26 1-1-1-1-23-5-5-10-8-14-11-5 3-16 13-8 6-1 25h-28v-26l1-1h6l-13-52-2-2-24 1-6 9-11 14-8 11-1 29-26 1-1-1v-27l3-2-12-19-7-12-5 1-31 9h-2v17h-27l-1-11 1-16h14l1-24 3-29h-22v-10l-11 6-29 16-2 1-1 20h-27v-27h11l-1-2-4-39-40-6 1 10-1 1h-26l-1-1v-26l2-1h19l3-7 14-26 5-9-8-1-1-1v-20l-43 4h-11v14l-1 1h-26l-1-9 1-19h18l4-10 11-25-6-2-24-13-10-7-1 5h-27l-1-1v-26l3-1 25 1h3l33-22 22-15h2v-19l-74-13v9l-1 1h-26v-27l27-1 12-12 8-7 9-9 1-2-4-2-14-14-8-7-4-3-27-1v-28h26l1 1v10l16-4 55-11h3l-1-19-48-32-7-4-6 2h-22l-1-1v-27h27l2 5 6-5 22-13 7-4h2l-1-5-12-27v-2h2l13 29v2l21-12 15-9 7-4h2l1-15-20-2-33-2-1 11h-27v-27h27v14l28 1 25 2v-20l1-1h9l-9-17-10-17-2-3 1-3 8 13 13 23 1 3h15l6-49 2-10-35 6h-4v12l-1 1h-27v-25l1-3 27 1v12l30-5 8-2 1-2 4-32 1-6-11 1v-28h11l16 1 1 3v16l16 8 17 8 7 3v-10l1-1h22l-3-31-1-17-13-1-1-2v-24l1-1h27v17l7 1 30 8 2-5 13-22 4-5-4-3v-26l2-1 26 1v29l7 8 11 14 6 8h-3l-11-14-9-11-4-5-2-1h-16l-14 23-6 10 7 3 27 7 26 8 2 1v-18l3-1 16 1h13l1-10 11-40 1-2h-8v-28zm-10 29-3 9-11 41 1 3 15 1h3l13-10 14-11 12-10-5-5-24-18zm-148 43v9h-12l3 49h16l6-11 10-16 12-20v-2l-14-3-19-6zm-74 52v6l-4-1h-8l-2 1-4 25-1 14 15-2 43-8 2-1 1-13-8-5-19-9-12-7zm-103 176-26 15-12 8-1 11 1 6 8 4 17 11 18 12 12 9h2v-8l11 1 2-2-11-25-7-15-11-26zm14 99-65 13-4 2v12l7 8 8 7 7 7 8 7h3l16-15 19-19 5-4 1-3v-15zm-38 60-6 5v2l-4 2-21 21v13l21 4 45 8 8 1v-16l-7-8-15-14-8-8-8-7zm42 78-18 13-38 25-3 1-1 14 2 4 18 10 21 12 3-1 12-29 17-38 1-3h-13v-8zm-16 82-8 16-7 15v3h7v11l52-4 2-1v-14l-11-7-26-14zm59 62-5 8-12 22-5 8-3 7 5 1v12l4 2 36 5v-9l-4-37-2-19zm22 67 4 41 15 1 2 4 14-8 23-13 4-2v-14l-6-2-47-7zm86 35-1 4-3 35v14l10 1 1 7 7-1 26-8 3-2-2-5-11-20-12-19-3-6zm105 33-44 14-14 4 2 5 17 29 1 1h18l20-26 6-8v-2l2-1-3-1-1-15zm53 14-16 1 2 11 11 44h20l13-11 13-10v-3l-9-7-13-11-14-11-4-3z" fill="#5394CE"/>
<path transform="translate(1167,157)" d="m0 0 5 5 12 20 4 7 16-4 14-4 7-1v-18l1-1h27v27h-14l-1 17-2 24-2 10h22v11l14-7 16-9 12-6 1-20h26l2 1v25l-1 2h-10l3 33v7l41 6v-11h17l10 1v26l-1 1h-20l-2 6-16 28-4 8h9l1 21 22-2 32-2v-14l27 1v26l-1 1h-26l-1-5 1-7-20 2-28 2h-7l1 15 17 9 18 10 11 6 12-27 2-4 2 1-11 26-2 6 10 6 21 12 9 6-1-4 1-2h25l2 1v26l-1 1h-19l-11-1-36 24-16 11-5 2v18l9 1 53 11 11 3 1-10 1-1h23l4 1v26l-1 1h-29l-26 26-1 3h2l26 26v2l28 1v26l-1 1h-25l-1-1v-9l-62 12-12 1 1 20 27 18 22 14 6 5 1-2h28v27h-27l-2-4-13 8-19 11-4 2 1 5 9 20 3 7-1 3-8-16-7-15v-2l-27 15-10 6-7 4h-2v15l23 2 27 3 4 1v-11l1-1h26l1 3-1 24h-27v-14l-18-1-28-3-8-2v22l-9 1 8 16 10 17 3 9 21 1v26h-27l-1-9-12 1-22 3h-5l-1 11-2 23-1 5 10 1 1 1v25l-7 1h-18l-3-1v-19l-6-2-23-12-10-6-3-1v11h-22l2 13 1 10v28h15v27h-27l-1-1v-15l-27-8-9-2-13 22-6 11 3 2v26l-26 1-1-1-1-29-9-12-11-14-4-5 1-3 8 10 14 18 5 7 19 1 1-5 9-16 8-13 4-7 9-15 11-19 7-11h-10v-41l-4-4 4-1 2-4h25l1-7h1l1 8h21l-1 20 45-7 16-2 1-15 5-41 2-8h-22l-1-20-9-1v-1l9-1 1-24 5-3 45 1v9l16-9 28-16-4-10-12-27-9-21-5-12-7-1h-23l-4-1v-13l-2-1 1-2 1-32 5-1 1-3 2 2h42l12-11 12-12 8-7 7-7-2-4-8-8-8-7-17-17-3-2h-42l-9-1-1-5-1-27 1-17 2-1h36l3-9 15-36 10-22v-4l-11-6-17-9-15-9-2-1v9l-40 1-3 3-2-2v-1l-5-1v-27l-4-1 3-1 1-20h21l-6-57v-6l-40-6-22-4v20l-2 1h-16l-2-1v3h-2v-2h-27l-1-4h-3l1-4h2v-42l9-1-13-21-12-20-5-6-3-7-11-19-4-6zm56 24-27 8-7 2 4 8 17 28 7 12h16l3-32 2-19-12-1-1-6zm74 49-41 22v14l20 4 39 6h2v-10l-3-31h-15v-5zm22 48 7 63h15l14-24 9-16v-2l-4-2v-13l-25-4-11-2zm82 130-7 15-13 31-9 21v2l9 1 1 9 11-7 11-8 33-22 5-2 1-2v-13l-3-3-15-9-21-12zm-19 99v16l5 5 17 16 18 18 4 1 24-24 6-5 1-3v-7l-8-3-47-10zm42 60-10 9-21 21-10 8-1 3v16h8l52-10 12-2 2-1v-14l-11-12-3-1v-2l-8-7-8-8zm-42 81-1 6h-12l2 6 13 29 11 26 4 9 5-2 16-9 16-10 4-2v-15l-19-13-17-11-15-10zm-55 142-3 14-5 42v7l17-1 23-4v-13l4-2-1-5-14-25-7-13zm-16 66-32 5-20 3-3 1v14l19 10 17 9 6 3v-6h15l1-4 3-35zm-93 36-12 20-11 19-5 8v3l27 8 7 2v-9h12l-1-30-2-20-1-1z" fill="#5393CE"/>
<path transform="translate(960,1198)" d="m0 0h104l16 3 12 5 12 7 9 9 7 11 4 10 2 6 1 7v17l-3 14-4 10-7 11-10 9-12 6-10 3h-4l9 11 15 16 7 8 12 14 13 14 5 7v1h-47l-12-14-9-10-9-11-12-13-7-8-8-9-36-1v66h-38zm38 35v64h64l10-3 11-8 5-10 1-4v-14l-4-11-8-8-10-5-6-1z" fill="#26405E"/>
<path transform="translate(1240,1194)" d="m0 0h23l18 3 16 6 16 9 12 11 9 10 9 15 6 15 4 19 1 20-2 18-5 19-5 12-10 15-9 10-9 8-14 8-13 5-26 6-6 1h-9l-28-6-17-6-15-9-13-12-10-14-8-16-5-18-2-14v-18l3-20 6-18 8-15 9-12 11-11 14-9 13-6 13-4zm5 34-16 3-10 4-11 8-8 8-8 14-5 13-2 14v12l2 14 4 12 6 11 8 10 9 7 12 6 12 3h26l16-5 11-6 9-8 7-10 5-11 4-16 1-14-2-17-4-13-6-12-8-10-12-9-12-5-15-3z" fill="#26405F"/>
<path transform="translate(748,394)" d="m0 0 3 1 11 16 13 19 4 5h26l1-7h1l1 8h33l1 2v29l2 3-2 1v33l1 2h-2l2 5h-65l-1 4-9 14-18 27-7 10 7 11 12 18 14 22 4 6 63 1-1 7v32l1 3 4 2h-6v31l-32 1 2 19 5 50v6l16 1 53 6 11 2v-31h32l1-3 2 1v-5h1v7l33-1 2-2v2l4 1 1 1v61l1 3 4 3-3 1-2-1-1 8h-27l2 14 7 36v8l-2-1-8-41-2-16-45-1-1-9-36 26-5 2 2-4 17-12 18-13 4-3 1-29-38-4-37-4-4-1 2 15 5 45v4h-2l-2-12-6-50-1-2-39-4-16-2-3-2h12l39 4 8 1-3-22-4-41v-12l-29 1-13 18-12 17-4 5h-2l2-5 10-13 8-12 7-10-9-1v-49l-9-2-27-9v-1l8 1 26 8 2 1v-24l1-1h7l3-1-34-52-5 5-7 11-11 16h-2l2-5 16-24 4-7-4-7-10-15-8-13v-2l3 1 10 16 10 15v2l5-5 29-44 1-2-10-1-1-25-32 9h-6l1-2 29-8 8-2 1-48h8l2-1-7-9-15-22-5-7z" fill="#4B74B6"/>
<path transform="translate(311,1198)" d="m0 0h32l5 1 1 83h97v-83l1-1h32l5 1v198l-12 1h-25l-1-1v-80l-97 1-1 79-6 1h-31l-1-1v-198z" fill="#5596D1"/>
<path transform="translate(601,1198)" d="m0 0h42l19 41 11 25 13 29 11 24 16 36 14 31 5 11v2l-39 1-3-2-11-24-4-10v-2h-106l-1 5-13 29-2 3h-41l10-23 13-29 28-62 16-36 15-33zm20 43-15 35-18 41-3 7 1 1h73l-3-9-13-29-13-30-7-16z" fill="#3E6CA5"/>
<path transform="translate(762,1198)" d="m0 0h106l14 3 16 7 10 8 7 7 7 11 5 12 3 16v13l-3 15-5 13-7 10-7 8-11 8-13 6-13 3-9 1h-62v58h-38zm38 36v70h64l10-3 8-6 6-7 4-11v-16l-4-11-9-10-10-5-4-1z" fill="#274160"/>
<path transform="translate(991,109)" d="m0 0h7l1 1v27l5 5 19 14 2 2 4-1 16-13 10-7 2-1 1-26 1-1 27 1v28l-29 1-6 4-16 13-5 4-1 2 4 2 17 13 12 9 11 8v-3l15-1-1-9-10-35-1-7 3 4 9 31 4 16 27-1 6-9 8-9 10-14 1-29h28v26l-7 2h-18l-10 14-12 14-2 3v20l50-14 8-2 4 1-16 5-44 12-1 1-1 29-18 2-2 1v-2h-29l-3-6h2v-38l-5-2-36-28-4-3-5 2-9 8-13 10-14 11-3 2v37l2 2-4 5h-28v5l-2-3v-2h-18l-1-3v-27l-23-7-37-10-4 1-16 27-10 15-1 2 8 1v42l4 2-2 1-2-1v5l-1 1h-25v5l-2-3v-2h-21l-1-1v-17l1-2-41 8-17 3h-3l-1 10-4 34-2 16 20 1 1 1v18l2 2-3 1v27l-5 1v4l-3-4-41-1-1-1-1-7-1-2h2l1-15-20-2-33-2-1 11h-27v-27h27v14l28 1 25 2v-20l1-1h9l-9-17-10-17-2-3 1-3 8 13 13 23 1 3h15l6-49 2-10-35 6h-4v12l-1 1h-27v-25l1-3 27 1v12l30-5 8-2 1-2 4-32 1-6-11 1v-28h11l16 1 1 3v16l16 8 17 8 7 3v-10l1-1h22l-3-31-1-17-13-1-1-2v-24l1-1h27v17l7 1 30 8 2-5 13-22 4-5-4-3v-26l2-1 26 1v29l7 8 11 14 6 8h-3l-11-14-9-11-4-5-2-1h-16l-14 23-6 10 7 3 27 7 26 8 2 1v-18l3-1 16 1h13l1-10 11-40 1-2h-8v-28zm-10 29-3 9-11 41 1 3 15 1h3l13-10 14-11 12-10-5-5-24-18zm-148 43v9h-12l3 49h16l6-11 10-16 12-20v-2l-14-3-19-6zm-74 52v6l-4-1h-8l-2 1-4 25-1 14 15-2 43-8 2-1 1-13-8-5-19-9-12-7z" fill="#5394CE"/>
<path transform="translate(1352,1198)" d="m0 0h43l11 16 29 43 9 13h2l9-14 15-22 24-36h42l-2 5-15 22-49 70 1 4 15 22 14 20 12 17 16 23 10 15v1h-43l-16-23-12-18-22-32-4 5-12 17-8 12-15 22-11 16-1 1h-43l4-7 8-11 11-16 13-19 10-14 13-19 9-13-1-4-10-15-12-17-14-20-22-32-8-11z" fill="#26405F"/>
<path transform="translate(1125,379)" d="m0 0 4 1 6 73v5l16 1 60 7 4 1v3h-11l-62-7-6-1 4 50 63 1 9-7h3l-1 4-8 7-3 2-1 7v91l12 11 2 2v3l-4-1-9-8-2-1-61-1-4 51 59-5h20v3l-32 3-40 3h-8l-1 19-4 45-2 10h-3v-11l5-58-1-4-22 2h-23v-2l13-2 24-2h10l4-52-43-1v-108h44l-1-2-4-50-15-1-29-3-3-2v-2h11l36 4-2-16-4-45z" fill="#3E6CA4"/>
<path transform="translate(1555,1198)" d="m0 0h45l7 10 14 23 26 42 4 6 3-4 10-16 10-15 12-19 9-14 8-12 1-1h46l-2 4-16 24-7 10-16 23-26 38-11 16-1 2-1 82h-38l-1-82-10-16-29-43-29-44-8-12z" fill="#26405F"/>
<path transform="translate(974,630)" d="m0 0h30l79 1 1 4-1 42h9v1h-8v2h9v1h-10v59l8 10v1h-5l-9-10-10-1h-86l-9 10-1 2h-4l1-4 6-7v-61h-7v-1l5-1-3-2h5z" fill="#3E6CA4"/>
<path transform="translate(967,379)" d="m0 0 4 1 7 7 4 5 13 1h78l5-5 8-9h4l-2 4-8 11 3 1v57l2 1v3h-2v46l-4 1-105-1v-46l-3-1 2-3 1-56 1-4-6-8-2-2z" fill="#3E6CA4"/>
<path transform="translate(1167,157)" d="m0 0 5 5 12 20 4 7 16-4 14-4 7-1v-18l1-1h27v27h-14l-1 17-2 24-2 10h22v11l14-7 16-9 12-6 1-20h26l2 1v25l-1 2h-10l3 33v7l41 6v-11h17l10 1v26l-1 1h-20l-2 6-16 28-4 8h9l1 21 22-2 32-2v-14l27 1v26l-1 1h-26l-1-5 1-7-20 2-28 2h-7l1 17-1 9-40 1-3 3-2-2v-1l-5-1v-27l-4-1 3-1 1-20h21l-6-57v-6l-40-6-22-4v20l-2 1h-16l-2-1v3h-2v-2h-27l-1-4h-3l1-4h2v-42l9-1-13-21-12-20-5-6-3-7-11-19-4-6zm56 24-27 8-7 2 4 8 17 28 7 12h16l3-32 2-19-12-1-1-6zm74 49-41 22v14l20 4 39 6h2v-10l-3-31h-15v-5zm22 48 7 63h15l14-24 9-16v-2l-4-2v-13l-25-4-11-2z" fill="#5394CE"/>
<path transform="translate(985,235)" d="m0 0 5 2 10 8 12 9 13 10 5 1 17-13 12-9 11-8h2v2l-17 13-18 14-5 3 2 4 19 14 13 10 14 11 4 3v2l-5-2-18-14-32-24-7 4-14 11-21 16-14 9-1 66-2 3-5-1-33-1-1 3-3-1v-2h-32v-32l-10 2-65 8-4 1-4 35-4 39-2 2v-14l6-56v-6l-33 4-12 1h-12l2-2 38-4 15-2 3-1 7-60 2-2v10l-5 46v6l68-8h10l-1-30-17-12-16-11-9-7v-2l5 2 18 13 14 10 6 4v-9l1-1h40l2-1 12-58 2-1v8l-10 48-1 4h29l1 1v5l11-7 15-12 11-8 16-12 1-2-5-2-15-12-20-15z" fill="#4B75B6"/>
<path transform="translate(1249,706)" d="m0 0h1v14l-5 47-1 6 40-4h14l-4 2-50 5-6 51-1 11-2 3v-17l5-45 1-2-79 9-1 8v20l12 9 17 12 14 10v2l-4-1-17-12-19-14-3-1-1 10h-42l-4 17-8 41-2 2v-9l8-42 2-9h-28l-2-7-5 3-14 11-13 10-14 11-5 4h-2l5 5 11 8 18 14 6 5v2l-5-2-12-10-24-18-4 1-18 14-13 10-6 5h-3l2-4 16-12 14-11 7-5v-2l-39-30-11-9 3-1 21 16 13 10 15 12 4-1 16-12 15-12 20-15 2-1 1-64 1-3h6l1 1 31 1v-2h4v-5h1v7h31l1 1v30l19-3 60-7 3-21 4-38z" fill="#4B75B6"/>
<path transform="translate(1103,242)" d="m0 0h2l3 12 8 44v4h44l1 1v8l11-7 16-12 13-9h2l-2 4-17 12-14 10-8 5-1 30 13 1v1l-9 1-4-1v31l-1 1-35 1v5h-1v-6h-33l-1 2-5-1v-67l-2-1 1-1 1-7 1-1h28l-5-24-6-33z" fill="#4B75B6"/>
<path transform="translate(931,746)" d="m0 0h1v7l33-1 2-2v2l4 1 1 1v61l1 3 4 3-3 1-2-1-1 8h-27l2 14 7 36v8l-2-1-8-41-2-16-45-1-1-9-36 26-5 2 2-4 17-12 18-13 4-3 1-29-3-1 3-1v-31h32l1-3 2 1z" fill="#4B75B6"/>
<path transform="translate(748,394)" d="m0 0 3 1 11 16 13 19 4 5h26l1-7h1l1 8h33l1 2v29l2 3-2 1v33l1 2h-2l2 5h-65l-1 3-2-2-10-1-1-25-32 9h-6l1-2 29-8 8-2 1-48h8l2-1-7-9-15-22-5-7z" fill="#4B74B6"/>
<path transform="translate(1282,620)" d="m0 0 2 1v2l9 1v26l6-1 30-11 4 1-12 5-25 9h-3l-1 46h-11l12 16 13 18 4 5v2l-4-2-8-11-12-16-7-11-27-1-1 11-2-4 1-7h-33l-1-1v-18l1-9h-2v-3l-2-1 3-1v-31l-1-5 3-7h62z" fill="#4B74B6"/>
<path transform="translate(1414,373)" d="m0 0 2 1-11 26-2 6 10 6 21 12 9 6-1-4 1-2h25l2 1v26l-1 1h-19l-11-1-36 24-16 11-5 2v18l9 1 53 11 11 3 1-10 1-1h23l4 1v26l-1 1h-29l-26 26-1 3h2l26 26 1 3-3-1-7-8-4-3v-2l-4-2-12-12-5 2-28 28-8 7h-2l2-4 8-7 14-14 8-7 7-7-2-4-8-8-8-7-17-17-3-2h-42l-9-1-1-5-1-27 1-17 2-1h36l3-9 15-36 10-22v-4l-11-6-17-9-16-10 2-1 24 13 19 11 3-4 11-26zm-13 35-7 15-13 31-9 21v2l9 1 1 9 11-7 11-8 33-22 5-2 1-2v-13l-3-3-15-9-21-12zm-19 99v16l5 5 17 16 18 18 4 1 24-24 6-5 1-3v-7l-8-3-47-10z" fill="#5393CD"/>
<path transform="translate(643,374)" d="m0 0h2l13 29v2l21-12 20-12 3 1-23 14-17 10h-2l5 13 20 46 6 12h33v17l3 1-2 2-1 30h-6l-1 3-2-2h-41l-27 27-8 7-4 5 15 14 12 11 8 8 4 3v2l-4-2-17-16-8-8-8-7-5-3-3 1-1 3h-2v2l-8 7-14 14-4 1 6-7 7-7 8-7 9-9 1-2-4-2-14-14-8-7-4-3-27-1v-28h26l1 1v10l16-4 55-11h3l-1-19-48-32-7-4-6 2h-22l-1-1v-27h27l2 5 6-5 22-13 7-4h2l-1-5-12-27zm13 35-26 15-12 8-1 11 1 6 8 4 17 11 18 12 12 9h2v-8l11 1 2-2-11-25-7-15-11-26zm14 99-65 13-4 2v12l7 8 8 7 7 7 8 7h3l16-15 19-19 5-4 1-3v-15z" fill="#5393CD"/>
<path transform="translate(574,596)" d="m0 0h26l2 2-1 13 21 3 45 8 8 2-1-16-1-3 1-1 41-1 4-1v1l6 1v32l6 1-4 2-2-1v15l-2 1h-24l-9 1-13 29-15 35-2 5v3l19 10 22 13 1 2-5-2-30-16-9-5-13 28-2 1 1-5 12-27-6-2-24-13-10-7-1 5h-27l-1-1v-26l3-1 25 1h3l33-22 22-15h2v-19l-74-13v9l-1 1h-26zm100 50-18 13-38 25-3 1-1 14 2 4 18 10 21 12 3-1 12-29 17-38 1-3h-13v-8z" fill="#5393CD"/>
<path transform="translate(1456,595)" d="m0 0 27 1v26l-1 1h-25l-1-1v-9l-62 12-12 1 1 20 27 18 22 14 6 5 1-2h28v27h-27l-2-4-13 8-19 11-4 2 1 5 9 20 3 7-1 3-8-16-7-15v-2l-27 15-15 9h-2v-2l26-15 16-9-4-10-12-27-9-21-5-12-7-1h-23l-4-1v-13l-2-1 1-2 1-32 5-1 1-3 2 2 42 1-1 20 30-5 35-7 9-1-1-15zm-74 53-1 6h-12l2 6 13 29 11 26 4 9 5-2 16-9 16-10 4-2v-15l-19-13-17-11-15-10z" fill="#5393CD"/>
<path transform="translate(1360,271)" d="m0 0h17l10 1v26l-1 1h-20l-2 6-16 28-4 8h9l1 21 22-2 32-2v-14l27 1v26l-1 1h-26l-1-5 1-7-20 2-28 2h-7l1 17-1 9-40 1-3 3-2-2v-1l-5-1v-27l-4-1 3-1 1-20h21l1-8h1v8l15-1 10-18 13-23-4-1-1-3v-11l-1-2h2z" fill="#5394CE"/>
<path transform="translate(1308,740)" d="m0 0 45 1v9h2v2h-2v15l23 2 27 3 4 1v-11l1-1h26l1 3-1 24h-27v-14l-18-1-28-3-8-2v22l-9 1 8 16 10 17 3 9 21 1v26h-27l-1-9-3-3h4l-1-13 4-2-1-5-14-25-6-12-14-1v3l-3 1 1-4h-22l-1-20-9-1v-1l9-1 1-24z" fill="#5394CE"/>
<path transform="translate(1103,885)" d="m0 0 2 4v2l18 1 1 30 62 18v1l-10-1-48-14-5-2v16l-5 2-26-2-2 11-10 36-3 7-1-4 12-42 2-8-3 1-17-1-10 9-10 8-16 13-3 3 13 11 10 8 3 2 29 1v27l-26 1-1-1-1-23-5-5-10-8-14-11-5 3-16 13-7 5-2-1 14-12 12-9 1-3-4-2-11-9-13-11-13-10 2-1 8 6 14 11 9 8 9 7 4-1 13-11 11-9 14-11 4-1v-40l-3-1 4-5h29z" fill="#5291CB"/>
<path transform="translate(746,740)" d="m0 0 7 1 1 1 1 27 3 2h-4v19l-21 1-1 5h-1v-6l-14 1-13 23-8 14-3 6-1-4 10-18 11-20-8-1-1-1v-20l-43 4h-11v14l-1 1h-26l-1-9 1-19h18l2-4 1 2-1 3h7v11l16-2 38-3-1-14-2-2 2-1 1-10z" fill="#5394CE"/>
<path transform="translate(692,301)" d="m0 0 4 4 15 27 4 8h15l1-6 2 4v2l20 1 1 1v18l2 2-3 1v27l-5 1v4l-3-4-41-1-1-1-1-7-1-2h2l1-15-20-2-33-2-1 11h-27v-27h27v14l28 1 25 2v-20l1-1h9l-9-17-10-17-2-3z" fill="#5394CE"/>
<path transform="translate(991,109)" d="m0 0h7l1 1v27l1 4-4-2h-15l-11 42-2 9 15 1 4 2-3 3v37l2 2-4 5h-28v5l-2-3v-2h-18l-1-3v-27l-1-2h2v-18l3-1 16 1h13l1-10 11-40 1-2h-8v-28z" fill="#5496D1"/>
<path transform="translate(953,886)" d="m0 0h1v5h28l5 5-3 3v33l2 6-3 2h-16l11 42 2 9v4h19l1 2-1 25h-28v-26l1-1h6l-13-52-2-2-25 1-4-2v-15h-2v-2h2v-32h17z" fill="#5496D0"/>
<path transform="translate(1125,379)" d="m0 0 4 1 6 73v5l16 1 60 7 4 1v3h-11l-62-7-6-1 3 39v10h-4l-4-50-15-1-29-3-3-2v-2h11l36 4-2-16-4-45z" fill="#2F4E74"/>
<path transform="translate(930,379)" d="m0 0h1v10l-5 52-2 16 37-4h11l-1 3-2 1-37 4h-8l-4 43-3 7h-1v-18l3-31-12 2-53 6h-10l-2-3 12-2 52-6 14-1 1-17 6-61z" fill="#2F4E74"/>
<path transform="translate(1135,623)" d="m0 0h4v12l-3 38 59-5h20v3l-32 3-40 3h-8l-1 19-4 45-2 10h-3v-11l5-58-1-4-22 2h-23v-2l13-2 24-2h10z" fill="#2E4E74"/>
<path transform="translate(916,623)" d="m0 0 3 1 2 14 3 32 1 1 39 4 9 3v1h-16l-33-3 1 2 6 59v14l-3-1-2-13-6-61-36-4-34-3-8-3v-2h11l60 6 7 1-2-12-2-21z" fill="#2E4E73"/>
<path transform="translate(936,942)" d="m0 0h2l-2 5-14 18-8 11-1 29-26 1-1-1v-27l3-3h2l1 2h18l8-11 11-14z" fill="#54A1D5"/>
<path transform="translate(886,127)" d="m0 0 27 1v29l7 8 11 14 6 8h-3l-11-14-9-11-4-5-2-1h-16l-2 2v-2l-5-2v-26z" fill="#55A1D5"/>
<path transform="translate(1120,942)" d="m0 0 5 5 11 14 12 16 19 1v-2l4 2 1 1v26l-26 1-1-1-1-29-9-12-11-14-4-5z" fill="#54A1D5"/>
<path transform="translate(1059,109)" d="m0 0 27 1v28h-29l1-28z" fill="#54A1D5"/>
<path transform="translate(991,109)" d="m0 0h7l1 1v27l1 4-4-2h-15l-2 1v-2h-8v-28z" fill="#54A1D5"/>
<path transform="translate(590,425)" d="m0 0h27l2 7-1 11v6h3l-1 2-7 2h-22l-1-1z" fill="#54A1D5"/>
<path transform="translate(979,991)" d="m0 0 1 4h19l1 2-1 25h-28v-26l1-1h6z" fill="#54A1D5"/>
<path transform="translate(672,272)" d="m0 0 27 1v12l2 1-1 1-1 12-1 1h-27v-25z" fill="#55A1D5"/>
<path transform="translate(1144,128)" d="m0 0h28v26l-7 2h-21z" fill="#55A2D6"/>
<path transform="translate(574,510)" d="m0 0h26l1 1v10l3-1 1 2-3 1v12l2 4-30-1z" fill="#54A1D5"/>
<path transform="translate(588,681)" d="m0 0 27 1 3 3h-3v14l1 4-1 6h-27l-1-1v-26z" fill="#54A1D5"/>
<path transform="translate(1443,424)" d="m0 0h25l2 1v26l-1 1h-19l-9-2 1-4v-15l-2-1h3l-1-4z" fill="#55A1D5"/>
<path transform="translate(1226,161)" d="m0 0h27v27l-15 1-12-1-2-7 1-19z" fill="#55A1D5"/>
<path transform="translate(1360,271)" d="m0 0h17l10 1v26l-1 1h-20l-1 2-6-4v-13l-1-2h2z" fill="#55A1D5"/>
<path transform="translate(1236,941)" d="m0 0 1 2h15v27h-27l-1-1v-26h12z" fill="#55A2D6"/>
<path transform="translate(1408,344)" d="m0 0 27 1v26l-1 1h-26l-1-5 1-7h-4v-2h4z" fill="#54A1D5"/>
<path transform="translate(819,936)" d="m0 0h1l1 9h10l1 1v7h2v2h-2v17h-27l-1-11 1-16h14z" fill="#54A1D5"/>
<path transform="translate(623,345)" d="m0 0h27v14h10l-3 2h-6l-1 11h-27z" fill="#54A1D5"/>
<path transform="translate(742,896)" d="m0 0 1 2h15l2 4h3l-4 3-1 20h-27v-27h11z" fill="#54A1D5"/>
<path transform="translate(1439,681)" d="m0 0h28v27h-27l-2-4-2-2 3-1v-15l-1-2z" fill="#54A1D5"/>
<path transform="translate(1299,208)" d="m0 0h26l2 1v25l-1 2h-12l-15-1-1-7z" fill="#55A2D6"/>
<path transform="translate(671,834)" d="m0 0h21l6 2v12l1 3h-2l1 10-1 1h-26l-1-1v-26z" fill="#54A1D5"/>
<path transform="translate(642,757)" d="m0 0 2 2-1 3h7l1 12-1 14-1 1h-26l-1-9 1-19h18z" fill="#54A1D5"/>
<path transform="translate(1457,510)" d="m0 0h23l4 1v26l-1 1h-11l-15-1v-2l-2-1 1-3v-20z" fill="#54A1D5"/>
<path transform="translate(1058,995)" d="m0 0h28v27l-26 1-1-1-1-23-1-3z" fill="#54A1D5"/>
<path transform="translate(806,163)" d="m0 0h27v17l2 1h-2v9h-12l-1 2-1-1-13-1-1-2v-24z" fill="#54A1D5"/>
<path transform="translate(732,211)" d="m0 0h11l16 1 1 3v16l2 2h-3v6h-12l-4 1v-2l-11 1z" fill="#54A1D5"/>
<path transform="translate(1456,595)" d="m0 0 27 1v26l-1 1h-25l-1-1v-9h-2v-2h2l-1-15z" fill="#54A1D5"/>
<path transform="translate(1408,761)" d="m0 0h26l1 3-1 24h-27l-1-15 1-11z" fill="#55A2D6"/>
<path transform="translate(574,596)" d="m0 0h26l2 2v15l-1 9-1 1h-26z" fill="#55A1D5"/>
<path transform="translate(1313,891)" d="m0 0 2 1v2l10 1 1 1v25l-7 1h-18l-3-1v-19h-2l2-7h15z" fill="#54A1D5"/>
<path transform="translate(1363,832)" d="m0 0 4 1 19 1v26h-27l-1-9-3-3h4l-1-13z" fill="#55A1D5"/>
<path transform="translate(311,1198)" d="m0 0h32l5 1v1h-22l-12 1-1 2v8l4 11v12l-1 8-2-1-1 8v22l1 3-1 7 1 5v18l-1 12-1 71 1 8 1 1 19 1v1h-22l-1-1v-198z" fill="#55A1D5"/>
<path transform="translate(1234,291)" d="m0 0h2l3 24 4 38 29 4 26 3 4 2h-13l-44-5-2-1 2 12 5 48v15l-2-2-7-63-1-10-19-2-48-6-5-1v-1h15l56 7-1-14-4-40z" fill="#375C88"/>
<path transform="translate(807,701)" d="m0 0h2l2 18 5 50v6l16 1 53 6 9 2v1h-9l-64-7-4-1 2 15 5 45v4h-2l-2-12-6-50-1-2-39-4-16-2-3-2h12l39 4 8 1-3-22-4-41z" fill="#355984"/>
<path transform="translate(1249,706)" d="m0 0h1v14l-5 47-1 6 40-4h14l-4 2-50 5-6 51-1 11-2 3v-17l5-45 1-2-70 8h-9l3-2 66-8 9-1 3-21 4-38z" fill="#345782"/>
<path transform="translate(822,291)" d="m0 0h1v10l-5 46v6l58-7h14l-4 2-65 8-4 1-4 35-4 39-2 2v-14l6-56v-6l-33 4-12 1h-12l2-2 38-4 15-2 3-1 7-60z" fill="#365B86"/>
<path transform="translate(1081,820)" d="m0 0v3l-8 7-16 12-15 12-9 7h-2l5 5 11 8 18 14 6 5v2l-5-2-12-10-24-18-4 1-18 14-13 10-6 5h-3l2-4 16-12 14-11 7-5v-2l-39-30-11-9 3-1 21 16 13 10 15 12 4-1 16-12 15-12z" fill="#32557D"/>
<path transform="translate(985,235)" d="m0 0 5 2 10 8 12 9 13 10 5 1 17-13 12-9 11-8h2v2l-17 13-18 14-5 3 2 4 19 14 13 10 14 11 4 3v2l-5-2-18-14-32-24-7 4-14 11-21 16-10 7h-2l2-4 48-36 1-2-5-2-15-12-20-15z" fill="#31537B"/>
<path transform="translate(775,513)" d="m0 0h2l-2 5-7 11-18 27-7 10 7 11 12 18 14 22 1 4h-2l-10-16-18-27-5-8-5 5-7 11-11 16h-2l2-5 16-24 4-7-4-7-10-15-8-13v-2l3 1 10 16 10 15v2l5-5 29-44z" fill="#345982"/>
<path transform="translate(1281,514)" d="m0 0 3 1 10 16 22 33h2l10-15 13-20 3-2-1 5-7 10-12 19-5 8 7 11 12 18 1 4h-2l-9-14-10-15-2-1-2 5-10 15-11 17-8 12h-2l2-6 12-18 11-17 7-11-4-7-10-15-7-11-10-15-3-5z" fill="#32537B"/>
<path transform="translate(1414,373)" d="m0 0 2 1-11 26-2 6 10 6 21 12 7 5-3 1-13-8-21-12-3-1-19 45-9 21-2 1 1-6 19-45 7-15v-4l-11-6-17-9-16-10 2-1 24 13 19 11 3-4 11-26z" fill="#355A84"/>
<path transform="translate(687,655)" d="m0 0h2l-1 5-8 17-12 28-8 19v3l19 10 22 13 1 2-5-2-30-16-9-5-13 28-2 1 1-5 12-27-6-2-24-13-10-7 2-1 16 9 21 12h2l12-29 17-38z" fill="#355A86"/>
<path transform="translate(643,374)" d="m0 0h2l13 29v2l21-12 20-12 3 1-23 14-17 10h-2l5 13 20 46 4 9-1 3-8-16-11-25-11-26-6 2-17 10-14 9-2-1 6-5 22-13 7-4h2l-1-5-12-27z" fill="#345883"/>
<path transform="translate(1368,655)" d="m0 0 3 3 14 31 11 26 3 9 21-12 15-9h2v2l-19 11-14 8-2 1 1 5 9 20 3 7-1 3-8-16-7-15v-2l-27 15-15 9h-2v-2l26-15 16-9-4-10-12-27-9-21-4-9z" fill="#355984"/>
<path transform="translate(1383,526)" d="m0 0 5 2 16 15 18 18 4 1 24-24 4-3h3v2l-5 3-24 24-1 3h2l26 26 1 3-3-1-7-8-4-3v-2l-4-2-12-12-5 2-28 28-8 7h-2l2-4 8-7 14-14 8-7 7-7-2-4-8-8-8-7-17-17z" fill="#32547C"/>
<path transform="translate(672,527)" d="m0 0 2 1-27 27-8 7-4 5 15 14 12 11 8 8 4 3v2l-4-2-17-16-8-8-8-7-5-3-3 1-1 3h-2v2l-8 7-14 14-4 1 6-7 7-7 8-7 9-9 1-2-4-2-14-14-8-7-2-3 4 2 10 9 15 14 7-6 8-7 22-22z" fill="#32547D"/>
<path transform="translate(1314,236)" d="m0 0 2 1 3 32v7l34 5 6 2-3 1-32-5h-4l5 45v14h-1l-3-23-3-31v-6l-40-6-21-4v-1h7l44 7 9 2-3-30z" fill="#365B87"/>
<path transform="translate(743,240)" d="m0 0h2l-3 24-2 14 25-5 28-5h5l-2 2-43 8-13 2-1 10-4 34-1 11-2 3v-14l4-33 2-10-35 6-3-1 7-2 27-5 3-1 1-2 4-32z" fill="#375C89"/>
<path transform="translate(889,157)" d="m0 0 1 2-18 30 7 3 27 7 26 8-1 2-50-14-11-2-8 13-11 18-9 14h-2l2-5 13-21 12-20 1-2-11-1-22-7v-2l12 3 23 6 2-5 13-22z" fill="#355985"/>
<path transform="translate(732,793)" d="m0 0h1l2 16 4 39v7l12 1 42 6 7 2v1l-10-1-42-6h-8l3 30v8h-2l-4-39-34-5-5-2 3-1 34 5 2 1-5-46z" fill="#385E8C"/>
<path transform="translate(840,893)" d="m0 0 5 5 13 21 10 18 4 4 24-7 32-10 4 1-33 11-24 7h-3l17 29 1 3h-2l-18-30-5 1-27 8-4-1 33-11-2-5-11-20-12-19z" fill="#355984"/>
<path transform="translate(1325,793)" d="m0 0h1l-1 11-6 49 23-3 5-1h10v1l-26 4-12 1-1 11-2 23-2 3v-15l2-18 1-3-23 4-22 3h-10v-1l53-8h2l1-15 5-41z" fill="#375C89"/>
<path transform="translate(1071,937)" d="m0 0 1 2-22 18-16 13-3 3 13 11 10 8 4 4-4-1-11-9-14-11-5 3-16 13-7 5-2-1 14-12 12-9 1-3-4-2-11-9-13-11-13-10 2-1 8 6 14 11 9 8 9 7 4-1 13-11 11-9 14-11z" fill="#32547C"/>
<path transform="translate(352,1282)" d="m0 0h94l-4 3h-12l-12-1v2l-3 1h-7-1l-4-1v1h-40l-1-3-7 1z" fill="#55A1D5"/>
<path transform="translate(1055,137)" d="m0 0h2v2l-6 4-16 13-5 4-1 2 4 2 17 13 20 15v2l-5-2-11-9-26-20-5 2-9 8-26 20h-2v-2l13-10 14-11 11-9-4-4-20-15 1-2 14 10 10 8 4-1 16-13z" fill="#345882"/>
<path transform="translate(1216,893)" d="m0 0 1 2-10 17-11 19-5 8-1 3 11 2 22 7 1 2-9-2-25-7h-2l-13 22-6 10h-2l2-5 16-27 4-7 9-15 11-19z" fill="#355985"/>
<path transform="translate(1167,157)" d="m0 0 5 5 12 20 4 7 16-4 14-4 6-1-1 2-27 8-6 2 16 27 10 16v2h-2l-13-22-8-13-7-10-6-12-13-21z" fill="#365985"/>
<path transform="translate(447,1198)" d="m0 0h28l-4 2h-22l1 4h-2l1 13-1 53-1 12h-1v-83z" fill="#55A2D6"/>
<path transform="translate(840,893)" d="m0 0 5 5 13 21 10 18 3 5h-2v2l-11 4-20 6-4-1 33-11-2-5-11-20-12-19z" fill="#365B86"/>
<path transform="translate(1249,706)" d="m0 0h1v14l-5 47-2 6-2 1 2-21 4-38z" fill="#375D89"/>
<path transform="translate(975,821)" d="m0 0 4 1 19 14 14 11 15 12-2 2-39-30-11-9z" fill="#345781"/>
<path transform="translate(1414,373)" d="m0 0 2 1-11 26-2 6 10 6 21 12 7 5-3 1-13-8-21-12-4-2 1-6 12-28z" fill="#33557E"/>
<path transform="translate(815,778)" d="m0 0h2l1 3 6 56v4h-2l-2-12-5-43z" fill="#385D8A"/>
<path transform="translate(1234,291)" d="m0 0h2l3 24 3 29v10l-2-1-3-24-3-30z" fill="#355A85"/>
<path transform="translate(807,701)" d="m0 0h2l2 18 4 40-1 10h-1l-5-47-1-11z" fill="#33557F"/>
<path transform="translate(659,407)" d="m0 0 2 3 18 41 10 23-1 3-8-16-11-25-10-24z" fill="#365A87"/>
<path transform="translate(1368,655)" d="m0 0 3 3 14 31 11 26 3 8-2 1-13-29-9-21-7-16z" fill="#345882"/>
<path transform="translate(1103,242)" d="m0 0h2l3 12 8 44-1 3-2-2-9-47z" fill="#375C89"/>
<path transform="translate(1115,831)" d="m0 0h1l-1 10-9 46-2 2v-9l8-42z" fill="#345781"/>
<path transform="translate(1168,346)" d="m0 0h15l48 6 6 2v1l-16-1-48-6-5-1z" fill="#355984"/>
<path transform="translate(952,242)" d="m0 0h1v8l-10 48-3 3 1-9 10-49z" fill="#365B86"/>
<path transform="translate(743,569)" d="m0 0h2l7 11 10 15 14 22 1 4h-2l-10-16-22-33z" fill="#365B87"/>
<path transform="translate(1281,514)" d="m0 0 3 1 10 16 22 33-2 2-7-10-11-17-12-18-3-5z" fill="#365B86"/>
<path transform="translate(1439,448)" d="m0 0h2v2l-14 9-24 16-16 11-4 1 5-5 19-13 24-16z" fill="#345782"/>
<path transform="translate(813,375)" d="m0 0h1v9l-5 47-2 2v-14l4-39z" fill="#355A85"/>
<path transform="translate(671,646)" d="m0 0h2v2l-20 14-33 22-3-1 11-8 36-24z" fill="#31537B"/>
<path transform="translate(942,831)" d="m0 0 2 1 9 47v8l-2-1-8-41z" fill="#345883"/>
<path transform="translate(876,346)" d="m0 0h14l-4 2-48 6h-8l1-2 29-4z" fill="#345882"/>
<path transform="translate(1244,355)" d="m0 0h11l43 5 4 2h-13l-44-5z" fill="#335680"/>
<path transform="translate(853,283)" d="m0 0 5 2 18 13 14 10 5 4v2l-4-2-19-13-14-10-5-4z" fill="#345881"/>
<path transform="translate(1073,197)" d="m0 0 2 4 2 7 2 1-1 4-1-2-1 1-1 26 27 1v1h-28l-3-6h2z" fill="#55A1D5"/>
<path transform="translate(1162,817)" d="m0 0 4 1 17 12 15 11 6 4v2l-4-1-17-12-19-14z" fill="#32547D"/>
<path transform="translate(1070,235)" d="m0 0h2v2l-17 13-18 14-4 2 1-4 13-10 12-9z" fill="#335780"/>
<path transform="translate(1308,393)" d="m0 0h2l-2 5-13 19-12 17h-2l2-5 13-19 11-16z" fill="#365A86"/>
<path transform="translate(891,818)" d="m0 0 3 1-10 8-18 13-10 7h-2l2-4 17-12z" fill="#345680"/>
<path transform="translate(1385,649)" d="m0 0 5 2 16 10 27 18 5 4-1 2-16-11-17-11-15-10z" fill="#33557F"/>
<path transform="translate(621,450)" d="m0 0 5 2 17 11 18 12 12 9-2 1-45-30z" fill="#345782"/>
<path transform="translate(1034,866)" d="m0 0 5 2 17 13 15 12v2l-5-2-12-10-20-15z" fill="#31537B"/>
<path transform="translate(1201,283)" d="m0 0h2l-2 4-17 12-14 10-5 3h-2v-2l13-9 18-13z" fill="#33557E"/>
<path transform="translate(774,701)" d="m0 0h2l-2 4-13 19-12 16h-2l2-5 10-13 8-12z" fill="#33567F"/>
<path transform="translate(1281,701)" d="m0 0 5 5 13 17 8 11 3 4v2l-4-2-8-11-12-16-5-7z" fill="#365C88"/>
<path transform="translate(1008,282)" d="m0 0m-2 1 3 1-5 5-21 16-6 4h-2l2-4 28-21z" fill="#365B86"/>
<path transform="translate(867,192)" d="m0 0 3 1-8 13-11 18-9 14h-2l2-5 13-21z" fill="#365A87"/>
<path transform="translate(978,140)" d="m0 0h2l-1 7-11 41-2 1 1-9z" fill="#375D8A"/>
<path transform="translate(1284,769)" d="m0 0h14l-4 2-38 4h-12v-1l22-3z" fill="#335680"/>
<path transform="translate(748,394)" d="m0 0 3 1 11 16 13 19 1 3-4-2-16-24-8-11z" fill="#345883"/>
<path transform="translate(1343,527)" d="m0 0 1 3-13 20-10 15-2-2 16-25 7-10z" fill="#345781"/>
<path transform="translate(966,943)" d="m0 0h2l11 44v5l-2-2-11-43z" fill="#385E8B"/>
<path transform="translate(755,769)" d="m0 0h12l31 3 1 3-37-3-7-2z" fill="#355A84"/>
<path transform="translate(1354,380)" d="m0 0 6 2 27 15 13 8 1 4h-2l-1-3-11-6-17-9-16-10z" fill="#365A86"/>
<path transform="translate(1076,139)" d="m0 0 3 4 9 31 3 12v3h-2l-11-40-2-6z" fill="#375D8A"/>
<path transform="translate(1015,870)" d="m0 0 2 1-1 3-16 12-11 9h-3l2-4 16-12z" fill="#33567E"/>
<path transform="translate(635,569)" d="m0 0 4 2 8 7 16 15 7 7 4 3v2l-4-2-17-16-8-8-8-7z" fill="#39608F"/>
<path transform="translate(1325,793)" d="m0 0h1l-1 11-4 33-1 6h-1v-13l4-32z" fill="#355A85"/>
<path transform="translate(1216,893)" d="m0 0 1 2-10 17-11 19-4 6-1-3 15-26 9-14z" fill="#335580"/>
<path transform="translate(687,655)" d="m0 0h2l-1 5-8 17-8 18h-2l3-9 13-29z" fill="#365A85"/>
<path transform="translate(737,570)" d="m0 0 3 1-10 15-11 16h-2l2-5 16-24z" fill="#345882"/>
<path transform="translate(717,529)" d="m0 0 3 1 10 16 10 15-2 2-8-11-13-21z" fill="#365C87"/>
<path transform="translate(1239,801)" d="m0 0h1v9l-3 28-2 3v-17l2-18z" fill="#345782"/>
<path transform="translate(713,792)" d="m0 0h2l-2 6-12 22-5 8-3 6-1-4 10-18z" fill="#375E8B"/>
<path transform="translate(1454,535)" d="m0 0h3v2l-5 3-24 24-2-2 24-24z" fill="#406C9F"/>
<path transform="translate(1071,937)" d="m0 0 1 2-33 27-2-2 13-11 14-11z" fill="#345782"/>
<path transform="translate(1364,300)" d="m0 0 1 3-10 18-11 18-1-3 20-35z" fill="#355883"/>
<path transform="translate(936,942)" d="m0 0h2l-2 5-14 18-10 13-1-3 12-15 12-16z" fill="#345883"/>
<path transform="translate(1329,638)" d="m0 0 4 1-12 5-22 8h-3v-2z" fill="#355A85"/>
<path transform="translate(736,295)" d="m0 0h1v13l-3 27-2 3v-14l3-26z" fill="#345781"/>
<path transform="translate(755,545)" d="m0 0v3l-7 11-5 7 1 3-3 1-3-1 1-7h3l11-16z" fill="#335780"/>
<path transform="translate(1343,792)" d="m0 0 3 3 11 21 6 11 2 5h-2l-12-22-8-15z" fill="#345882"/>
<path transform="translate(761,484)" d="m0 0h2v2l-24 7-7 2h-6l1-2 29-8z" fill="#375E8B"/>
<path transform="translate(1295,229)" d="m0 0 3 1-16 9-22 12-2-1 8-5z" fill="#335680"/>
<path transform="translate(1192,198)" d="m0 0 4 4 19 32 1 3h-2l-13-22-8-13z" fill="#345782"/>
<path transform="translate(1035,167)" d="m0 0 5 2 15 12 8 6 7 5v2l-5-2-11-9-13-10-6-5z" fill="#315178"/>
<path transform="translate(1233,353)" d="m0 0h10l5 1-4 2 1 16h-2l-1 2-2-18-4-1z" fill="#3C6697"/>
<path transform="translate(1120,942)" d="m0 0 5 5 11 14 9 12 1 4-5-5-12-16-9-11z" fill="#385E8B"/>
<path transform="translate(797,881)" d="m0 0 2 1-9 6-25 14-3-1 10-6z" fill="#365C87"/>
<path transform="translate(1201,618)" d="m0 0 5 2 10 10v3l-4-1-9-8-2-1z" fill="#2D4C70"/>
<path transform="translate(1144,156)" d="m0 0 2 1-6 9-18 22-1-3 12-14z" fill="#39608E"/>
<path transform="translate(910,155)" d="m0 0h2l2 4 5 5 9 11 9 12h-3l-11-14-9-11-4-5z" fill="#375D89"/>
<path transform="translate(1318,855)" d="m0 0h1l-1 11-2 23-2 3v-15l2-18z" fill="#395F8D"/>
<path transform="translate(729,638)" d="m0 0 8 1 26 8 1 2-8-1-27-9z" fill="#345782"/>
<path transform="translate(692,301)" d="m0 0 4 4 15 27 2 3-1 3-14-24-6-10z" fill="#355A86"/>
<path transform="translate(1186,941)" d="m0 0h1l-1 7-8 13-9 15h-2l2-5 16-27z" fill="#385F8C"/>
<path transform="translate(1383,526)" d="m0 0 5 2 16 15 7 7-2 2-22-22z" fill="#3C6394"/>
<path transform="translate(841,506)" d="m0 0 4 1 11 9v4l-4-1-10-9z" fill="#2E4D71"/>
<path transform="translate(762,233)" d="m0 0 5 1 16 8 17 9-3 1-17-8-18-10z" fill="#365B86"/>
<path transform="translate(869,942)" d="m0 0 4 1 2 5 15 25v2h-2l-18-30z" fill="#345681"/>
<path transform="translate(1261,882)" d="m0 0 5 1 22 12 8 5-2 1-25-13-8-5z" fill="#345781"/>
<path transform="translate(819,323)" d="m0 0h1l-1 15-2 14-2 1v-10l2-16z" fill="#355984"/>
<path transform="translate(1435,703)" d="m0 0h2v2l-19 11-10 6-2-2 24-14z" fill="#345781"/>
<path transform="translate(669,695)" d="m0 0 3 1-12 28-2-1 3-9z" fill="#375D89"/>
<path transform="translate(603,539)" d="m0 0 4 2 10 9 15 14-3 1-16-16-8-7z" fill="#33547F"/>
<path transform="translate(1115,831)" d="m0 0h1l-1 10-3 16h-3l1-9 3-13z" fill="#355A85"/>
<path transform="translate(1299,486)" d="m0 0 9 1 23 6 1 2-8-1-23-6z" fill="#365C88"/>
<path transform="translate(659,407)" d="m0 0 2 3 11 25-3 1-10-24z" fill="#375C88"/>
<path transform="translate(1414,373)" d="m0 0 2 1-11 26-3 4-1-2 12-28z" fill="#375B89"/>
<path transform="translate(1086,379)" d="m0 0h4l-2 4-7 9h-5l2-4z" fill="#2E4D72"/>
<path transform="translate(967,379)" d="m0 0 4 1 7 7 2 5h-5l-6-8-2-2z" fill="#2F4F75"/>
<path transform="translate(1245,749)" d="m0 0h1v10l-2 13-3 2 2-21z" fill="#33567F"/>
<path transform="translate(852,616)" d="m0 0h3v4l-11 8h-2l1-4 7-7z" fill="#305076"/>
<path transform="translate(1103,242)" d="m0 0h2l3 12 1 5v9h-2l-4-23z" fill="#365B87"/>
<path transform="translate(1382,448)" d="m0 0 1 4-10 23-2 1 1-6 9-21z" fill="#345782"/>
<path transform="translate(1385,695)" d="m0 0h2l12 27-2 2-12-27z" fill="#355A85"/>
<path transform="translate(699,381)" d="m0 0 3 1-23 14-4 2v-3z" fill="#355985"/>
<path transform="translate(1022,976)" d="m0 0 3 1-17 14-7 5-2-1 14-12z" fill="#375C88"/>
<path transform="translate(1188,780)" d="m0 0h5l-3 3-19 2h-9l3-2z" fill="#375D89"/>
<path transform="translate(1323,578)" d="m0 0h2l13 20 1 4h-2l-9-14-5-7z" fill="#32557D"/>
<path transform="translate(807,701)" d="m0 0h2l2 18v6h-2l-1-3-1-11z" fill="#385F8C"/>
<path transform="translate(1402,585)" d="m0 0 3 1-12 12-8 7h-2l2-4 8-7z" fill="#365A86"/>
<path transform="translate(672,527)" d="m0 0 2 1-19 19-2-2 16-16z" fill="#3A6293"/>
<path transform="translate(976,740)" d="m0 0 3 1-3 5-5 6h-4l1-4 6-7z" fill="#305177"/>
<path transform="translate(1212,506)" d="m0 0h3l-1 4-8 7h-3v-4z" fill="#305177"/>
<path transform="translate(952,242)" d="m0 0h1v8l-3 14-3 2 1-9 3-14z" fill="#355A86"/>
<path transform="translate(1222,180)" d="m0 0 2 1-10 4-14 4h-6l2-2 22-6z" fill="#345781"/>
<path transform="translate(985,938)" d="m0 0 5 2 14 11 6 5-2 2-10-9-13-10z" fill="#375B88"/>
<path transform="translate(1406,470)" d="m0 0 2 1-12 9-11 7-2-1 8-6z" fill="#345680"/>
<path transform="translate(1079,741)" d="m0 0 5 1 7 8v1h-5l-7-8z" fill="#2F4E73"/>
<path transform="translate(991,295)" d="m0 0 1 3-15 11h-2l2-4z" fill="#345780"/>
<path transform="translate(949,863)" d="m0 0h1l3 16v8l-2-1-3-16z" fill="#365B88"/>
<path transform="translate(844,350)" d="m0 0h10l-2 2-14 2h-8l1-2z" fill="#31537B"/>
<path transform="translate(840,893)" d="m0 0 5 5 10 16-2 2-13-21z" fill="#385F8C"/>
<path transform="translate(1243,372)" d="m0 0h2l1 5v16h-2l-1-11z" fill="#345782"/>
<path transform="translate(652,735)" d="m0 0h2l-1 5-8 17-2 1 1-5z" fill="#375E8A"/>
<path transform="translate(748,394)" d="m0 0 3 1 11 16-3 1-11-16z" fill="#355985"/>
<path transform="translate(1217,351)" d="m0 0 14 1 6 2v1l-16-1-8-1z" fill="#355A84"/>
<path transform="translate(889,157)" d="m0 0 1 2-12 20-2-2 11-18z" fill="#355A85"/>
<path transform="translate(672,397)" d="m0 0 3 1-13 8-2 1-2 3v-2h-2l2-4 5-2z" fill="#305177"/>
<path transform="translate(821,818)" d="m0 0h1l2 23h-2l-2-12z" fill="#385F8D"/>
<path transform="translate(1168,346)" d="m0 0h15l10 2v1h-11l-14-2z" fill="#31537B"/>
<path transform="translate(1234,291)" d="m0 0h2l1 5v16l-2-2z" fill="#335680"/>
<path transform="translate(1056,882)" d="m0 0 7 4 8 7v2l-5-2-10-8z" fill="#33557F"/>
<path transform="translate(1292,605)" d="m0 0 3 1-10 15h-2l2-6z" fill="#345782"/>
<path transform="translate(1318,564)" d="m0 0h2l-1 6 5 8h-3l-3-5v-2h-3v-6z" fill="#31527A"/>
<path transform="translate(1439,549)" d="m0 0h2l-2 4-11 11-2-2z" fill="#3A5F92"/>
<path transform="translate(879,301)" d="m0 0 4 2 12 9v2l-4-2-12-8z" fill="#355883"/>
<path transform="translate(868,835)" d="m0 0 1 3-13 9h-2l2-4z" fill="#33567F"/>
<path transform="translate(818,804)" d="m0 0h2l1 5v15l-2-3-1-8z" fill="#31537B"/>
<path transform="translate(1239,801)" d="m0 0h1v9l-1 8-3 1 1-13z" fill="#335680"/>
<path transform="translate(616,703)" d="m0 0 6 2 10 6 4 2-1 3-15-9z" fill="#39608E"/>
<path transform="translate(671,646)" d="m0 0h2v2l-17 12-1-3z" fill="#355984"/>
<path transform="translate(765,604)" d="m0 0h3l9 15v2h-2l-10-16z" fill="#345680"/>
<path transform="translate(948,265)" d="m0 0h1l-1 10-2 9-2-4 2-13z" fill="#385E8C"/>
<path transform="translate(974,971)" d="m0 0 2 4 3 12v5l-2-2-4-17z" fill="#39608E"/>
<path transform="translate(999,883)" d="m0 0m-2 1h2v3l-10 8h-3l2-4z" fill="#345882"/>
<path transform="translate(636,714)" d="m0 0 16 8 5 4-5-1-16-9z" fill="#365986"/>
<path transform="translate(678,676)" d="m0 0 1 4-7 15h-2l3-9z" fill="#33547E"/>
<path transform="translate(1368,655)" d="m0 0 3 3 7 16h-3l-7-16z" fill="#385F8C"/>
<path transform="translate(1328,549)" d="m0 0h2l-1 4-8 12-2-2z" fill="#355883"/>
<path transform="translate(1388,432)" d="m0 0 3 1-7 16-2-1 3-9z" fill="#385F8B"/>
<path transform="translate(852,218)" d="m0 0 1 3-10 15-1 2h-2l2-5 9-14z" fill="#355883"/>
<path transform="translate(1216,893)" d="m0 0 1 2-10 17-2-2 10-16z" fill="#365B88"/>
<path transform="translate(834,777)" d="m0 0 16 1 4 2h-16l-4-1z" fill="#31527A"/>
<path transform="translate(1284,769)" d="m0 0h14l-4 2-8 1h-9l1-2z" fill="#315179"/>
<path transform="translate(756,726)" d="m0 0 3 1-10 13h-2l2-5z" fill="#355985"/>
<path transform="translate(1281,701)" d="m0 0 5 5 7 9-3 1-9-12z" fill="#345681"/>
<path transform="translate(612,584)" d="m0 0 3 1-11 11-4 1 6-7z" fill="#3B6496"/>
<path transform="translate(1304,550)" d="m0 0 4 2 8 12-2 2-7-10-3-4z" fill="#355883"/>
<path transform="translate(652,546)" d="m0 0h2l-2 4-11 10-3-1 10-9z" fill="#305076"/>
<path transform="translate(809,414)" d="m0 0h1l-1 17-2 2v-14z" fill="#32547D"/>
<path transform="translate(818,775)" d="m0 0 14 1 2 1v2l-13-1-3-1z" fill="#375C88"/>
<path transform="translate(1370,740)" d="m0 0h2l-1 3-14 8h-2v-2z" fill="#375D8A"/>
<path transform="translate(1420,672)" d="m0 0 4 1 13 9v3l-17-12z" fill="#38608E"/>
<path transform="translate(1439,448)" d="m0 0h2v2l-14 9-2 1 1-4z" fill="#365B87"/>
<path transform="translate(670,436)" d="m0 0 3 1 5 12v5l-3-4-5-12z" fill="#33567F"/>
<path transform="translate(1285,359)" d="m0 0 13 1 4 2h-13l-10-1v-1z" fill="#345782"/>
<path transform="translate(1070,299)" d="m0 0 5 3 9 7v2l-5-2-9-7z" fill="#365B86"/>
<path transform="translate(1070,235)" d="m0 0h2v2l-12 9-2-2 10-8z" fill="#365B86"/>
<path transform="translate(1186,187)" d="m0 0 4 2 4-1 2 2-6 2 3 6-2 1-6-8z" fill="#3D679A"/>
<path transform="translate(1162,817)" d="m0 0 4 1 10 7-1 3-12-9z" fill="#355A85"/>
<path transform="translate(785,357)" d="m0 0h7l-3 3-15 1 3-3z" fill="#3C6697"/>
<path transform="translate(1190,936)" d="m0 0 1 3-1 3 11 2-4 2-10-2 1-5z" fill="#345883"/>
<path transform="translate(631,673)" d="m0 0h2l-1 3-12 8-3-1 11-8z" fill="#355884"/>
<path transform="translate(1314,571)" d="m0 0 4 1h-2l-2 5-5 7-2-1 2-4z" fill="#385F8C"/>
<path transform="translate(1424,419)" d="m0 0 10 5 7 5-3 1-14-9z" fill="#345680"/>
<path transform="translate(1201,283)" d="m0 0h2l-2 4-9 6h-2l1-3z" fill="#32557D"/>
<path transform="translate(998,182)" d="m0 0 3 1-13 10h-2v-2z" fill="#385E8B"/>
<path transform="translate(1042,984)" d="m0 0 5 2 11 9-3 1-13-11z" fill="#375D89"/>
<path transform="translate(891,818)" d="m0 0 3 1-10 8-3 1v-3z" fill="#375E8B"/>
<path transform="translate(1249,706)" d="m0 0h1v14l-3 3v-8z" fill="#365C88"/>
<path transform="translate(739,490)" d="m0 0h4v2l-11 3h-6l1-2z" fill="#345681"/>
<path transform="translate(1308,393)" d="m0 0h2l-2 5-6 8h-2l2-5z" fill="#345782"/>
<path transform="translate(1174,302)" d="m0 0 3 1-4 4-8 5h-2v-2z" fill="#365C87"/>
<path transform="translate(1364,300)" d="m0 0 1 3-7 13-2-1 2-5z" fill="#375D89"/>
<path transform="translate(1018,274)" d="m0 0h2v3l-10 7-2-1 5-5z" fill="#32557D"/>
<path transform="translate(353,1311)" d="m0 0h5l1 6h-9l2-3z" fill="#55A2D6"/>
<path transform="translate(1107,873)" d="m0 0 1 4-3 12h-1v-9l1-6z" fill="#33557E"/>
<path transform="translate(1417,571)" d="m0 0 2 1-13 13-3-1z" fill="#2C4A6C"/>
<path transform="translate(1176,960)" d="m0 0 1 3-8 13h-2l2-5z" fill="#335680"/>
<path transform="translate(975,821)" d="m0 0 4 1 8 6-1 3-11-9z" fill="#345780"/>
<path transform="translate(744,561)" d="m0 0v3l-1 3v3h-5l1-8z" fill="#305179"/>
<path transform="translate(1e3 140)" d="m0 0 7 4 8 6-2 2-13-10z" fill="#39608E"/>
<path transform="translate(936,942)" d="m0 0h2l-2 5-7 9-2-2 8-10z" fill="#3A6492"/>
<path transform="translate(654,408)" d="m0 0 4 1-14 8-1-3z" fill="#385E8A"/>
<path transform="translate(1387,398)" d="m0 0 5 2 8 5 1 4h-2l-1-3-11-6z" fill="#38608F"/>
<path transform="translate(1414,373)" d="m0 0 2 1-6 14h-2l3-9z" fill="#345883"/>
<path transform="translate(1239,340)" d="m0 0h2l1 4v10l-2-1-1-5z" fill="#33557E"/>
<path transform="translate(1295,229)" d="m0 0 3 1-14 8-2-2z" fill="#375B88"/>
<path transform="translate(1192,198)" d="m0 0 4 4 6 11-2 1-8-14z" fill="#34557F"/>
<path transform="translate(1056,183)" d="m0 0 5 2 9 7v2l-5-2-9-7z" fill="#355983"/>
<path transform="translate(876,178)" d="m0 0 1 2-5 9 1 2-5 1 2-5z" fill="#315378"/>
<path transform="translate(813,749)" d="m0 0h1l1 15-1 5h-1l-1-14z" fill="#3D689A"/>
<path transform="translate(1404,721)" d="m0 0 3 1-5 3v6h-2l-1-4h-2l2-4z" fill="#305077"/>
<path transform="translate(1299,406)" d="m0 0 3 1-7 10-2-1 2-5z" fill="#375D8A"/>
<path transform="translate(817,339)" d="m0 0h1v8l-2 6h-1v-10z" fill="#32547D"/>
<path transform="translate(723,591)" d="m0 0h2l-1 4-5 7h-2l2-5z" fill="#365C87"/>
<path transform="translate(1022,976)" d="m0 0 3 1-11 9-2-2z" fill="#365A87"/>
<path transform="translate(882,938)" d="m0 0h4v2l-13 3-1-2z" fill="#385E8B"/>
<path transform="translate(1301,728)" d="m0 0 5 5 4 5v2l-4-2-5-7z" fill="#345883"/>
<path transform="translate(1385,649)" d="m0 0 5 2 10 6-2 2-12-8z" fill="#375E8B"/>
<path transform="translate(1130,175)" d="m0 0v3l-8 10-1-3z" fill="#335580"/>
<path transform="translate(1194,839)" d="m0 0 4 2 6 4v2l-4-1-6-4z" fill="#355A84"/>
<path transform="translate(1325,793)" d="m0 0h1l-1 11-1 5h-1v-11z" fill="#33557F"/>
<path transform="translate(713,792)" d="m0 0h2l-2 6-4 7-2-2z" fill="#39608D"/>
<path transform="translate(1243,772)" d="m0 0 8 1v1l-5 1-2 1-1 2-1-1h-5l3-1v-2z" fill="#406AA0"/>
<path transform="translate(603,539)" d="m0 0 4 2 9 8h-3l-8-7z" fill="#385F8D"/>
<path transform="translate(1246,388)" d="m0 0h1l1 14h-3v-9z" fill="#3A6190"/>
<path transform="translate(827,352)" d="m0 0 4 1-3 2h-11l1-2z" fill="#355B85"/>
<path transform="translate(950,254)" d="m0 0h1l-1 10-3 2 1-9z" fill="#355883"/>
<path transform="translate(985,235)" d="m0 0 5 2 6 5-2 2-8-6z" fill="#365C87"/>
<path transform="translate(738,852)" d="m0 0 1 3 3 1h-3l-1 3-1-2-10-2v-1h8l3 1z" fill="#305076"/>
<path transform="translate(1064,833)" d="m0 0 1 3-9 6 2-5z" fill="#32557D"/>
<path transform="translate(1231,775)" d="m0 0h9l-3 2-5 1h-7l2-2z" fill="#31527A"/>
<path transform="translate(658,723)" d="m0 0 2 4-5 8h-2l3-9z" fill="#305178"/>
<path transform="translate(662,594)" d="m0 0 4 2 8 7v2l-4-2-8-7z" fill="#32557D"/>
<path transform="translate(1323,578)" d="m0 0h2l6 10-4-1-4-6z" fill="#355A85"/>
<path transform="translate(1237,306)" d="m0 0h1l1 14-3-1z" fill="#3C6595"/>
</svg>
