<?xml version="1.0" encoding="UTF-8"?>
<svg version="1.1" viewBox="0 0 2048 2048" width="512" height="512" xmlns="http://www.w3.org/2000/svg">
<path transform="translate(984)" d="m0 0h76l33 6 25 6 27 9 24 11 19 11 16 11 14 11 13 12 9 8 7 8 9 10 13 17 14 21 12 21 8 15 13 30 10 27 9 30 9 36 8 42 6 44 4 43 2 37 1 28 1 103 2 23 6 23 8 20 13 25 16 25 13 18 14 19 14 18 11 14 13 16 10 13 11 14 12 15 13 17 10 13 14 19 12 17 16 23 12 19 13 21 13 23 7 12 8 16 15 31 14 34 9 24 13 40 12 48 6 32 5 35 3 30 2 28 1 25 1 74 12 11 8 13 5 12 3 13 1 9v25l-4 52v21l3 12 4 4v2l4 2 11 9 16 11 37 25 17 13 14 12 10 10 10 13 8 14 6 14 4 19v22l-3 14-5 12-7 11-11 12-11 9-18 11-27 13-42 16-32 12-26 11-21 11-12 8-10 9-3 1-2 4-19 19-7 8-13 13-6 7-6 5-18 18-11 9-17 13-17 11-23 12-21 8-22 6-26 5-7 1h-47l-32-8-18-8-12-8-11-9-7-8-10-13-8-16-5-13v-2h-244l-38 1-25 2-31 4-30 5-37 8-29 8-21 7-16 8-8 6-8 8-16 12-17 9-19 6-5 1h-38l-31-6-28-7-33-11-28-11-29-13-40-18-28-12-17-6-19-3-76-7-38-5-23-4-27-6-27-8-20-8-16-8-15-10-10-9-5-5-7-8-8-14-5-15-2-12v-11l9-43 4-33v-28l-3-25-8-50-2-22v-14l3-19 6-15 7-11 11-12 11-9 15-9 15-7 24-8 24-6 51-11 15-4 3-2 13-51 7-20 8-17 8-12 8-10 11-10 13-8 4-2 3-13 7-36 9-39 12-43 20-64 19-56 19-52 16-42 18-46 15-36 15-33 12-25 26-52 9-17 28-56 11-23 15-34 15-39 7-21 8-29 6-27 4-27 2-17 1-19 1-62 1-34 3-52 4-44 5-37 7-41 9-39 8-27 7-21 9-22 11-23 10-17 8-12 13-17 9-10 14-14 10-8 16-11 16-9 17-8 27-9 28-6z" fill="#FDFDFD"/>
<path transform="translate(984)" d="m0 0h76l33 6 25 6 27 9 24 11 19 11 16 11 14 11 13 12 9 8 7 8 9 10 13 17 14 21 12 21 8 15 13 30 10 27 9 30 9 36 8 42 6 44 4 43 2 37 1 28 1 103 2 23 6 23 8 20 13 25 16 25 13 18 14 19 14 18 11 14 13 16 10 13 11 14 12 15 13 17 10 13 14 19 12 17 16 23 12 19 13 21 13 23 7 12 8 16 15 31 14 34 9 24 13 40 12 48 6 32 5 35 3 30 2 28 1 25v71l-2 16-5 36-5 25-5 19-7 19-8 16-10 16-9 11-13 13-14 10-10 6-20 8-15 4-17 3-28 2h-52l-18-2-15-4-15-6-13-8-14-11-8-8-10-14-8-14-6-12-7-21-5-21-3-24-1-92-2-62-4-60-4-40-6-46-6-38-9-47-12-53-14-52-17-56-19-55-18-47-15-37-19-44-13-28-16-35-8-17-1-3 12-8 10-8 13-11 9-10 8-13 4-11 1-10-3-18-6-18-8-15-8-11-9-10-9-9-14-11-15-10-4-3 2-4 7-11 8-14 6-15 6-25 2-15v-38l-3-21-5-19-6-15-9-17-9-11-8-8-14-9-10-4-9-2h-21l-12 3-16 8-12 10-11 14-7 12-8 20-5 20-3 23v28l4 31 1 5-10-1-28-6-6-1h-17l-25 3-10 1 1-10 2-16v-38l-3-21-5-19-6-15-9-17-9-11-8-8-14-9-10-4-9-2h-21l-12 3-16 8-13 11-10 13-7 12-8 20-4 15-3 18-1 9v30l3 23 5 20 6 16 9 16 10 13-2 4-13 10-11 9-12 11-11 11-10 13-8 14-5 10-4 14-1 6v10l3 16 6 16 6 11 10 14 3 3v2h2l7 8 3 3v2l4 2 7 7 4 3-1 5-13 34-12 28-16 36-56 112-9 17-11 23-14 30-15 36-17 43-10 26-16 43-15 42-16 47-17 55-10 36-9 37-6 30-2 11-21-8-11-3-9-1h-15l-19 3-11 2 1-11 7-36 9-39 12-43 20-64 19-56 19-52 16-42 18-46 15-36 15-33 12-25 26-52 9-17 28-56 11-23 15-34 15-39 7-21 8-29 6-27 4-27 2-17 1-19 1-62 1-34 3-52 4-44 5-37 7-41 9-39 8-27 7-21 9-22 11-23 10-17 8-12 13-17 9-10 14-14 10-8 16-11 16-9 17-8 27-9 28-6z" fill="#353636"/>
<path transform="translate(459,1365)" d="m0 0h15l13 2 18 6 10 5 5 5 11 9 12 13 12 17 11 18 12 22 8 15 11 23 12 24 11 23 15 30 14 24 11 18 13 18 12 14 3 3v2h2v2h2v2l4 2 11 9 16 12 13 11 10 9 15 15v2h2l11 14 8 10 12 18 9 15 8 15 11 27 7 23 6 25v4l68 4h70l34-2 40-4 40-6 40-8 28-7 30-9 21-7 28-11 26-12 20-11h2l4-64 4-43 5-41 6-41 8-42 7-31 9-31 7-19 10-23 10-18 8-11 3-3 2-3 1 49 3 24 6 25 7 19 8 16 9 14 9 11 11 10 10 7 10 6 15 6 15 4 18 2h52l28-2 25-5 18-6 16-8 14-10 10-9 8-8 10-14 8-14 7-15 7-20 5-19 5-26 4-31 2-16 4 5 10 9 8 13 5 12 3 13 1 9v25l-4 52v21l3 12 4 4v2l4 2 11 9 16 11 37 25 17 13 14 12 10 10 10 13 8 14 6 14 4 19v22l-3 14-5 12-7 11-11 12-11 9-18 11-27 13-42 16-32 12-26 11-21 11-12 8-10 9-3 1-2 4-19 19-7 8-13 13-6 7-6 5-18 18-11 9-17 13-17 11-23 12-21 8-22 6-26 5-7 1h-47l-32-8-18-8-12-8-11-9-7-8-10-13-8-16-5-13v-2h-244l-38 1-25 2-31 4-30 5-37 8-29 8-21 7-16 8-8 6-8 8-16 12-17 9-19 6-5 1h-38l-31-6-28-7-33-11-28-11-29-13-40-18-28-12-17-6-19-3-76-7-38-5-23-4-27-6-27-8-20-8-16-8-15-10-10-9-5-5-7-8-8-14-5-15-2-12v-11l9-43 4-33v-28l-3-25-8-50-2-22v-14l3-19 6-15 7-11 11-12 11-9 15-9 15-7 24-8 24-6 51-11 15-4 3-2 13-51 7-20 8-17 8-12 8-10 11-10 13-8 4-2 1-2 23-5z" fill="#F9BA37"/>
<path transform="translate(1706,1418)" d="m0 0 4 5 10 9 8 13 5 12 3 13 1 9v25l-4 52v21l3 12 4 4v2l4 2 11 9 16 11 37 25 17 13 14 12 10 10 10 13 8 14 6 14 4 19v22l-3 14-5 12-7 11-11 12-11 9-18 11-27 13-42 16-32 12-26 11-21 11-12 8-10 9-3 1-2 4-19 19-7 8-13 13-6 7-6 5-18 18-11 9-17 13-17 11-23 12-21 8-22 6-26 5-7 1h-47l-32-8-18-8-12-8-11-9-7-8-10-13-8-16-5-13-4-21-2-15v-36l2-50 2-48 4-61 4-43 5-41 6-41 8-42 7-31 9-31 7-19 10-23 10-18 8-11 3-3 2-3 1 49 3 24 6 25 7 19 8 16 9 14 9 11 11 10 10 7 10 6 15 6 15 4 18 2h52l28-2 25-5 18-6 16-8 14-10 10-9 8-8 10-14 8-14 7-15 7-20 5-19 5-26 4-31z" fill="#FABA37"/>
<path transform="translate(843,260)" d="m0 0h21l15 4 11 6 10 8 9 9 7 10 10 19 7 21 4 21 1 9v38l-3 20-1 6 15-3 20-2h17l25 5 19 4-2-5-4-31v-28l3-23 5-20 6-15 7-14 9-12 6-7 14-11 15-7 10-2h21l15 4 11 6 10 8 9 9 7 10 10 19 7 21 4 21 1 9v38l-3 20-6 23-8 18-9 14-5 7 1 3 16 10 13 11 8 7 11 11 10 14 8 15 6 18 3 18-1 10-4 11-6 10-11 13-11 10-17 13-22 14-17 10-26 14-31 15-30 13-35 14-39 14-32 10-11 3h-18l-23-6-25-10-27-13-24-14-15-10-14-10-20-16-25-25v-2h-2l-9-12-9-14-6-14-4-15-1-7v-10l4-16 4-10 8-15 9-12 11-12 12-12 11-9 18-14-2-4-10-14-8-15-7-21-4-19-2-17v-30l3-22 4-17 6-16 8-16 9-12 8-9 12-9 13-6z" fill="#F9B937"/>
<path transform="translate(723,546)" d="m0 0h1l1 14v15l-2 1-1 3h2l1 11v10l3 16 6 16 6 11 10 14 3 3v2h2l7 8 3 3v2l4 2 7 7 4 3-1 5-13 34-12 28-16 36-56 112-9 17-11 23-14 30-15 36-17 43-10 26-16 43-15 42-16 47-17 55-10 36-9 37-6 30-2 11-21-8-11-3-9-1h-15l-19 3-11 2 1-11 7-36 9-39 12-43 20-64 19-56 19-52 16-42 18-46 15-36 15-33 12-25 26-52 9-17 28-56 11-23 15-34 15-39 7-21 8-29 6-27 4-27z" fill="#353636"/>
<path transform="translate(1280,1798)" d="m0 0h2v15l-2 62-1 18v36l4 27 1 7h-244l-38 1-25 2-31 4-30 5-37 8-29 8-21 7-16 8-5 2 2-4 9-16 7-15 6-20 4-24 1-11v-17l-2-29 3-1 44 3 21 1h70l34-2 40-4 40-6 40-8 28-7 30-9 21-7 28-11 26-12z" fill="#353636"/>
<path transform="translate(1669,1260)" d="m0 0h10l5 2 2 4h2l3 5 1 8 1 5 2 4 1 6h4l2 3 1 5-5 1v10l3 3h3v24l2 17 1 3v58l-2 16-5 36-5 25-5 19-7 19-8 16-10 16-9 11-13 13-14 10-10 6-20 8-15 4-17 3-28 2h-52l-18-2-15-4-15-6-13-8-14-11-8-8-10-14-8-14-6-12-7-21-1-4v-8l-1-2 4 1 2 7v4l4 2 2 9v3l3 7 6 10 4 7 9 11 7 8 5 2v2l5 1 13 6 3 1v-2l5 2 10 2 15 4h11l14 1 12-3 3-6 6-1v4l4-5h2v-2l11-2 1-5 4-2 9-1 4-3h2v-2l5-5 7-8 6-3h2l2-4 6-4 6-8 5-7 5-4 6-9 6-5 4-5h2l1-7 5-8 3-5v-3l4-4 5-6 6-5 6-7 3-9-6-1 2-5 7-8 5-11 1-6-5-1v-8l3-1 2-7 5-8 1-2-4-6 3-1 1-6 7-1 1-5 3-2-1-4-5-1v-6l4-2 2-4h2v-7l-5 1-1 4h-2l1-6 4-9 6-11-4-5v-1h-2l-2 4h-2l-1 2-1-9-4-9 1-5 3-1 2-4h2v-2l4-2 2-5-5 3-8-1v-21h3v-9z" fill="#232323"/>
<path transform="translate(843,260)" d="m0 0h21l15 4 11 6 10 8 9 9 7 10 10 19 7 21 4 21 1 9v38l-3 20-2 7-15 5-18 5-8 3-4-1 2-12 1-11-1-22-4-20-5-13-6-11-7-8-7-4-4-1h-8l-9 4-8 8-8 15-5 16-3 21v19l3 21 5 16 5 10-2 4-18 10-5 3-4-2-11-15-8-15-7-21-4-19-2-17v-30l3-22 4-17 6-16 8-16 9-12 8-9 12-9 13-6z" fill="#FDFDFD"/>
<path transform="translate(1099,260)" d="m0 0h21l15 4 11 6 10 8 9 9 7 10 10 19 7 21 4 21 1 9v38l-3 20-6 23-8 18-9 14-6 8-7-2-8-5-11-5 1-7 5-13 3-12 2-16v-24l-3-18-5-17-7-13-9-10-9-4h-9l-9 4-8 8-7 12-6 17-3 16-1 11v14l2 17 1 7-8-1-21-6-13-4-2-1-2-6-4-31v-28l3-23 5-20 6-15 7-14 9-12 6-7 14-11 15-7z" fill="#FDFDFD"/>
<path transform="translate(984)" d="m0 0h76l33 6 25 6 27 9 24 11 19 11 16 11 14 11 13 12 9 8 7 8 9 10 13 17 14 21 12 21 8 15 13 30 10 27 9 30 5 19v4h-2l-6-21-3-12-4-2-4-10-5-12-5-11-14-31-8-14-7-12-7-11-10-14-13-16-15-16-10-10-10-8-19-14-21-13-21-11-12-5v-2h-6l-20-7-21-5v-2l-9-1-26-4-22-2h-39l-36 4-31 6-26 8-17 7-17 9-11 7-16 12-12 11-10 10-1 2h-2l-2 4-11 13-7 11-8 13-5 8-2 8-4 9-5 12-3 9-2 3-3 10h-2l-1 7-2 5-2 8-3 7-3 9-2 5-1 7-2 6-3 15-2 4-1 11-2 11-2 7-1 9v2l-3 3-1 8-1 31-3 6-1 31v5h-1l-2 9h-1v-10l5-58 5-37 7-41 9-39 8-27 7-21 9-22 11-23 10-17 8-12 13-17 9-10 14-14 10-8 16-11 16-9 17-8 27-9 28-6z" fill="#6A6869"/>
<path transform="translate(1e3 20)" d="m0 0h39l29 3 19 3 9 2v1l-11-1-19-3h-8l-2-1-10-1h-50l-21 2-10 2h-4v3l-10-1h-5l-1 2-4-1-1 9 1 3-1 2h-2l-1 3h-3l-1-1-2 5-4 3h-3l-1 6-2 3-3 3h-2l-4-4-3 1 1 5h3v3l-5 1v-2l-8 1 1 6v7l-1 2h-3l-2-3-4 2 1 4 2 5-4 1-2-2h-4l-2 7-4 5-4 1-1 7-3 2-4-3-1 5-1 3h-2l-1 5-2-1-2 4h-2l-1 3-2 5-3 1-2-6-5 2v2l2 1v6l-3 7h-2v2l-6 1-3 4-1 2-2-1v7l-3 4-1 9-3 1-1 6h-2l-1 5-4 3h-2l-2 7-5 1h-1l-1 5-4 2-1-2-2 1-3-3 2 5-1 5-7 3h-2v2l-6 4-2 3 1 1-4 1-2 4-2 8-5 9-1 3 1 6-4 5-2 6-2 5-2 1 1 3-5 25v5l-2 3-2 20-2 10v10l-1 7-1 6-3 3-1 7-3 9-2 3h2l2 6-1 22-2 5-1 7-3 2-1 17v29l-1 1-1 8-1 35h-1v-52l1-34 2-28 2-10 1-4 1-31 3-6 1-31 2-10 3-1-1-2v-6l1-3 2-7 3-19 1-5 3-12 1-7h2l1-11 2-5 2-7 4-9 4-13 2-7h2l2-10 4-7 2-8 6-12 3-8 2-7 11-19 7-10 11-14 4-5h2l2-4 17-17 17-13 16-10 15-8 20-8 23-7 31-6z" fill="#4A4A49"/>
<path transform="translate(1105,341)" d="m0 0h9l10 5 7 7 8 14 5 14 3 15 1 8v24l-3 20-5 17-4 8-6-1-18-8-28-11-10-4-2-8-2-17v-14l2-17 4-16 6-15 7-10 7-7z" fill="#363636"/>
<path transform="translate(849,341)" d="m0 0h8l8 3 9 8 8 14 5 13 4 20 1 22-2 17-2 7-4 3-26 11-28 14-3-3-6-13-4-16-2-16v-19l3-21 6-18 7-13 9-9z" fill="#363737"/>
<path transform="translate(719,579)" d="m0 0h1v13l-3 9-1 10 2 1-2 5-1 12h-2l-1 9-2 12-2 10-3 9-1 7h-2l-1 10-3 3-2 7-4 8h-2l-3 10-13 30-7 16-8 16-8 17-10 19-9 19-10 19-11 22-10 19-12 25-3 6-2 9-3 6-4 9-3 7-3 6-4 9-4 11-6 13-1 4-6 13-2 7-5 12-3 10-5 11-5 13-5 14-4 10-5 16-4 10-3 10-4 11-5 14-4 13-3 7-8 24-5 16-3 10-2 6-5 16-3 8-3 12-3 8-2 7-3 9-2 9-3 7-2 11-3 5-2 9-3 15-2 7-1 10v11l24-4h12l16 3 12 4 3 3-22-6-9-1h-15l-19 3-11 2 1-11 7-36 9-39 12-43 20-64 19-56 19-52 16-42 18-46 15-36 15-33 12-25 26-52 9-17 28-56 11-23 15-34 15-39 7-21 8-29 6-27z" fill="#6D6B6C"/>
<path transform="translate(1369,629)" d="m0 0 2 4 7 21 12 25 10 17 16 24 13 18 13 17 10 13 11 14 13 16 10 13 11 14 12 15 13 17 10 13 14 19 12 17 16 23 12 19 13 21 13 23 7 12 8 16 15 31 14 34 9 24 13 40 12 48 6 32 5 35v7h-1l-5-32-5-25-3-17-3-9-2-9-6-23-3-9-4-9-3-9-3-5-3-9-2-5 1-2h-2l-11-25-16-34-17-33-13-23-10-17-11-18-16-24-13-18-14-19-12-16-33-42-10-13-13-16-22-28-10-13-12-16-15-22-16-25-13-25-6-15-3-12v-8l-1-4z" fill="#5A5756"/>
<path transform="translate(1196,1941)" d="m0 0h49l19 1 12 1 4 2v6h2l2 12h-121l-158-1-2-2h-11l-3-2-8 1-6-1-3 2-6-1-1-2 4-2h8l3-2 8-2 1 3 2 1v2l10-3-2-4 7-1 11-1h3l5-1h26v-2l6 1 10-1v2l10-2h31l5-1h27l15-1h20l13-1h8z" fill="#242424"/>
<path transform="translate(1623,1104)" d="m0 0 5 1-1 3h-5v3l5 1 1 11-4 11h3l1 3-1 7 3 5-1 10 2 3-1 5-4-2v5h2l1-2 4 1 1-2v3l-1 11 4 7v9l-2 3 2 5v9l1 3-2 10v13l-2 9-2 10 1 8v24l1 7-2 14-3 12-1 1-1 7-3 5-3 6 1 5-2 8-2 1 1 2h-2l1 4-3 1-2-1-1 3-7 3h-3v-2l-5 2-5 3-9 1-2 4-3 5h-2l-2 5-5 9-4 10h-2l-1 5-5 10h-1v-5h2v-8l6-12 3-10 5-10h2v-2l5-3 5-6 11-3 7-3 4-2 1-4 6-4 2-3 2-7h2v-12l2-7 2-9 3-6 1-16-1-6v-12l-1-7 1-9 1-2 1-9 2-6-1-7v-3-12l2-3-4-6 2-5 2-3-3-8-1-3-2-10v-8l-2-1-1-1 1-11 1-2-2-1v-3h-1l-1-7h-2l-1-5 1-3h2v-5l-4-4 1-9h2l-2-4 3-9z" fill="#232323"/>
<path transform="translate(584,924)" d="m0 0 1 4-8 18-3 7-3 6-4 9-4 11-6 13-1 4-6 13-2 7-5 12-3 10-5 11-5 13-5 14-4 10-5 16-4 10-3 10-4 11-5 14-4 13-3 7-8 24-5 16-3 10-2 6-5 16-3 8-3 12-3 8-2 7-3 9-2 9-3 7-2 11-3 5-2 9-3 15-2 7-1 10v11l24-4h12l16 3 12 4 3 3-22-6-9-1h-15l-19 3-11 2 1-11 3-16 2-1 3-15 4-13 2-11 2-6 2-4 3-14 6-21 4-13 6-21 6-18 2-1 1-7 2-7 3-11h2l2-11 3-7 3-9 2-8h2v-5l2-6 2-1v-5l3-6 2-1 2-9 1-3h2l2-11h2l1-4 5-17 3-5 1-6h2l1-4 5-14v-2h2l2-10 6-12 2-9 4-6 6-17h2l1-5 4-11 5-10 9-21z" fill="#595655"/>
<path transform="translate(866,248)" d="m0 0 9 2v2h7l4 2 3 3 2 1v2l5 2 5 5 10 5 5 6 3 5 2 5 3 1v3h2l2 5 5 12 5 16 2 3 2 12 2 7v19l-2 1-2 36-2 2-1-38-3-21-5-19-6-15-9-17-9-11-8-8-14-9-10-4-4-2 1-3-4 1-6-2 1-6z" fill="#4C4C4B"/>
<path transform="translate(1590,969)" d="m0 0 5 5 5 9 6 10 8 16 4-1-6-10-2-1 1-5 4 5 15 29 12 25 14 34 9 24 13 40 12 48 6 32 5 35v7h-1l-5-32-5-25-3-17-3-9-2-9-6-23-3-9-4-9-3-9-3-5-3-9-2-5 1-2h-2l-11-25-16-34-17-33-4-7-1-5-7-14-7-12-4-7z" fill="#595756"/>
<path transform="translate(727,763)" d="m0 0 1 3-10 19-11 23-8 16-6 10-10 21-10 18-6 12h-2l-3 9-14 28-5 11-6 12-4 10-5 10-6 18-3 7-2 4-2 9-3 8-1 3-3 3v7l-2 1-4 8-2 2-2 11h-2l-1 8-3 4v6l-3 3-2 6-3 8-2 8h-2l-1 7-3 4-3 11-3 5 1 6-3 4-2 7-2-1 1-10 1-1 2-10 3-7 5-13 3-4 1-8 4-10 4-12 3-1v-7l6-15 4-8h2l2-12 3-9 5-9 2-5 2-7 3-10 4-9 2-2 3-12 7-14 3-7 5-8 6-14 6-10 5-12 5-10 6-8 3-9 5-6 4-8 4-9 7-10 4-9 17-34 2-5 8-14z" fill="#4A4A49"/>
<path transform="translate(848,244)" d="m0 0h10l2 3-2 3-4 1-1 2-5 2h-3l-1 2-3 2 2 2-12 3-16 8-13 11-10 13-7 12-8 20-2 3-2-5 4-9 1-5 4-8h2l2-7 3-3 3-5 1-4 2-3h-2v-3l-5-1 1-6h2l2-4 6-5 4-5 5-3 7-3 28-7z" fill="#4A4A49"/>
<path transform="translate(677,726)" d="m0 0 1 3-5 10-11 23-12 24-1 4h-2l-2 8h-2l-2 8h-2l-1 6-1 2h-2l-1 6-1 2h-2l-1 5-5 11h-2l-2 8h-2l-2 8h-2l-2 8h-2l-2 8h-2l-1 4-8 16-7 15-9 19-2-2v-5l-1-2 14-29 25-50 9-17 28-56 11-23 3-4h2l1-5z" fill="#615E5E"/>
<path transform="translate(510,1112)" d="m0 0 2 2-5 12-4 12-7 22-3 7-8 24-5 16-3 10-2 6-5 16-3 8-3 12-3 8-2 7-3 9-2 9-3 7-2 11-3 5-2 9-3 15-2 7-1 10v11l24-4h12l16 3 12 4 3 3-22-6-9-1h-15l-19 3-11 2 1-11 3-16 2-1 3-15 4-13 2-11 2-6 2-4 3-14 1-2h2l4-16 2-3 2-9 3-7 4-13 6-19 4-13 7-18 3-10 11-33 5-12 4-12z" fill="#4A4A49"/>
<path transform="translate(1200,1834)" d="m0 0h5l1 3-11 4-10 4-5 1-9 3-2 1 3 2-7 3-7 1-3-3-18 6-12 2h-3-2l-1 4-3 1v-2l-10 1-6 2-1 2-2-1 1-2-13 3-5 2-3 1-4-1-5 1h-9l-5 1-12 2-1 2h-21l1-3-2-2 36-4 43-7 37-8 31-8 28-9z" fill="#2E2E2E"/>
<path transform="translate(1546,898)" d="m0 0 4 1 1 4 2-1 2 7 4 2 4 5v2l4 1 12 18 14 22 14 24 4 7v6l4 5 3 5v2l-4 1-5-8-6-11-7-12-5-8-5-5-2-7-7-11-7-10-3-6-7-9-1-5h-2l-3-4v-3l-2-1-4-6v-2h-2z" fill="#535252"/>
<path transform="translate(787,149)" d="m0 0 1 3-4 10-6 12-2 8-3 5-3 10h-2l-1 7-2 5-2 8-3 7-3 9-2 5-1 7-2 6-3 15-2 4-1 11-2 11-2 7-1 9v2l-3 3-1 8-1 31-3 6-1 31v5h-1l-2 9h-1v-10l5-58 5-37 3-17 2-4 4-18 1-8 3-6 3-11v-5l3-6 2-10 3-7 5-14 2-6 2-4h2v-6l11-22z" fill="#595655"/>
<path transform="translate(1670,1162)" d="m0 0h3l3 8v7h2v5l2 3v6l2 3 4 12 3 4 3 8 5 26v14l-2 1-3-4 1-5h-2l-2-7v-7l-4-11-1-3-3-5v-12l-4-6-2-8 1-1h-1v-8l-2-9-2-1v-3-5l-2-1z" fill="#252525"/>
<path transform="translate(584,924)" d="m0 0 1 4-8 18-3 7-3 6-4 9-4 11-6 13-1 4-6 13-2 7-5 12-3 10-5 11-5 13-5 14-4 10-5 16-4 10h-1l-1-10 1-3h2l1-4 5-17 3-5 1-6h2l1-4 5-14v-2h2l2-10 6-12 2-9 4-6 6-17h2l1-5 4-11 5-10 9-21z" fill="#52504F"/>
<path transform="translate(723,546)" d="m0 0h1l1 14v15l-2 1-1 3h2l1 11v10l1 11-4-1-2 8 1 6v6l-2 3-1 7-5 3-1 8-2 3h-2l3-16 2-9h2l-1-5 2-9v-4l-1-4 2-8 2-7 1-21z" fill="#494948"/>
<path transform="translate(1104,442)" d="m0 0 3 1v4h17l-1 9-2 1 3 2h8v4h-2l-1 2-3-2-2 1-2-1v-2l-4 1-4-1-2-4h-3v2l4 1v2l4 1v1l-8-1-22-9v-2l-4-2 8-3 2 1h8l1-2h-2v-2z" fill="#252525"/>
<path transform="translate(732,385)" d="m0 0h3l2 6-1 22-2 5-1 7-3 2-1 17v29l-1 1-1 8-1 35h-1v-52l1-34 2-28 2-10 1-4z" fill="#4C4C4B"/>
<path transform="translate(719,579)" d="m0 0h1v13l-3 9-1 10 2 1-2 5-1 12h-2l-1 9-2 12-2 10-3 9-1 7h-2l-1 10-3 3-2 7-4 8-1-3 7-20-2-1 2-4 1-7 2-6 4-10 1-8 2-5h-1v-8l8-32z" fill="#555352"/>
<path transform="translate(889,1970)" d="m0 0 4 2-1 2 4 1-4 1h-4l-1 3h-4l-1 3-32 9-9 1-2-4 1-5 5-3 1 5 3-6h5l4-3 4 1-2 7 5-1 1-3 9-2 2-1 2-5h6z" fill="#262626"/>
<path transform="translate(1666,1115)" d="m0 0 2 3 10 31 12 48 6 32 5 35v7h-1l-5-32-5-25-3-17-3-9-2-9-6-23-3-9-4-9-4-14z" fill="#727071"/>
<path transform="translate(735,788)" d="m0 0h3l-2 6-8 17-8 16-11 21-27 54-3 4-1-5 6-12 9-17 4-8 1-4h2l2-8h2l1-4 9-19 9-17 11-23z" fill="#4A4A49"/>
<path transform="translate(1364,1283)" d="m0 0 3 1 2 12 1 24v7l1 4v25l1 1v6l-1 2h-3l-1-20h-1l-2-43h2v-4h-2l-1-13z" fill="#232323"/>
<path transform="translate(437,1338)" d="m0 0h1v29l24-4h12l16 3 12 4 3 3-22-6-9-1h-15l-19 3-11 2 1-11 3-16 2-1z" fill="#5E5C5C"/>
<path transform="translate(918,1964)" d="m0 0v3l2 1 7-3 6 1 7 3v2l-24 4h-6v-2l-2-1-1 3-2-1-2 2-1-2-5 1 4-8 6-1 2 2 2 1h3l-1-3z" fill="#282828"/>
<path transform="translate(1553,918)" d="m0 0h2l5 7v2h2l4 6v2h2l6 10 6 8 3 5 9 14 3 6 7 12 8 16-2 1-10-18-8-13-11-18-16-24-10-14z" fill="#666464"/>
<path transform="translate(738,298)" d="m0 0h2l1 12-3 3-1 8-1 31-3 6-1 31v5h-1l-2 9h-1v-10l5-58z" fill="#666463"/>
<path transform="translate(1360,1257)" d="m0 0 1 4v10l2 1v7l2 4-1 5v10h2v4h-2l1 4v18l-1 23h-1l-2-40-2-31v-18z" fill="#454545"/>
<path transform="translate(453,1286)" d="m0 0h1v6l-3 7-2 11-3 5-2 9-3 15-2 7-1 5h-1v-19l5-17 2-11 2-6 2-4h2l2-7z" fill="#4A4A49"/>
<path transform="translate(1317,215)" d="m0 0h2l8 23 8 26 5 19v4h-2l-6-21-4-12-4-10-1-7-2-3v-2l-2-1 1-5-3-3-1-7z" fill="#727071"/>
<path transform="translate(1303,200)" d="m0 0h2l1 4 7 1 1 7 3 3 1 8 3 3-1 5 1 3 2 1 1 1 1 8 3 8-1 2-3-5-4-8-4-11-5-11-8-17z" fill="#575453"/>
<path transform="translate(1e3 20)" d="m0 0h39l29 3 19 3 9 2v1l-11-1-19-3h-8l-2-1-10-1h-50l-21 2h-11v-1z" fill="#504F4E"/>
<path transform="translate(472,1225)" d="m0 0 1 4-3 10-3 8-3 12-3 8-2 7-4 12-3 3-2 5h-1v-7l3-9h2l4-16 2-3 2-9 3-7 4-13z" fill="#4A4A49"/>
<path transform="translate(1621,1062)" d="m0 0 3 3v8l1 4 1 5 4 1-1 5 2 4v2h-2v-2l-5 2h-5v-14l2-5-6-8 5-4z" fill="#232323"/>
<path transform="translate(973,1875)" d="m0 0h31v2l-8 2-3 1v1h-7-2-10v-1h-5-3-15l-13-1v-1l33-2z" fill="#2A2A2A"/>
<path transform="translate(752,691)" d="m0 0 2 3v11l-4 13h-2l-1 8-6 15v4h-2l-2 5-3 8-3-3 2-5 2-1 1-7 6-12 2-9 1-5 2-3 1-5h2l-1-3 2-12z" fill="#4A4A49"/>
<path transform="translate(1198,72)" d="m0 0 5 2 4 2v-2h5l3 3v4l2-1-1-2 6 2 3 3v2l6 2 2 4h-3v-2h-2v2l-2 1 1 2-4-2-15-12-10-7z" fill="#5B5858"/>
<path transform="translate(1517,1534)" d="m0 0 2 1-3 11-3 4h-2l-4 8-5 5-1 5h-2v2l-6 4-10 6h-4l1-4 11-6 3-1v-2h2l2-4 4-2 2-5 1-2h2l2-5 4-6h2z" fill="#232323"/>
<path transform="translate(775,684)" d="m0 0 5 3-1 5-13 34-2 2h-2l2-9 1-5 3-8 1-5 2-1 3-9 3-3z" fill="#4D4D4C"/>
<path transform="translate(719,579)" d="m0 0h1v13l-3 9-1 10 2 1-2 5-1 12-4 3h-2l-1 3-1-3 8-32z" fill="#646161"/>
<path transform="translate(1047,1869)" d="m0 0h9l-2 4-12 2-1 2h-21l1-3-2-2z" fill="#2F2F2F"/>
<path transform="translate(1069,37)" d="m0 0 6 1h15l-1 3 2 1v-2l2 1-3 4h-4l-1-2-2 4h-6l-4-2h-5l-1-5z" fill="#494948"/>
<path transform="translate(1279,1825)" d="m0 0h1v11l-1 9-1 36-1-3h-2v-23l1-7-1-4 1-1v-14l2-3z" fill="#232323"/>
<path transform="translate(1111,456)" d="m0 0 3 2v3h8v2l6-1 1 2 4-1 3 6v4l-6-1-15-7 1-2-3-1v-2l-4-1v-2z" fill="#2C2C2C"/>
<path transform="translate(584,924)" d="m0 0 1 4-8 18-3 7-3 6-4 9-4 11-6 13-1 4-2 1 2-9 4-11 5-10 9-21z" fill="#514F4E"/>
<path transform="translate(897,274)" d="m0 0 5 2 8 7 7 8 3 5 2 4 2 3v6l-3-1-9-16-12-13-3-3z" fill="#3E3F3F"/>
<path transform="translate(854,455)" d="m0 0h5v2h-2l-1 3-26 13-2-1 1-5 6-1 2-2 6-3 3-3z" fill="#2A2A2A"/>
<path transform="translate(1704,1402)" d="m0 0 1 4-1 9h1l1-10h1v13l-2 16-3 23-2-4v-6l1-3v-6l3-9h-2l1-3 1-2-2-1v-2l2-1-3-4-1-8 3-5z" fill="#3E3E3E"/>
<path transform="translate(1688,1193)" d="m0 0 2 4 6 32 5 35v7h-1l-5-32-5-25-2-11z" fill="#7F7D7E"/>
<path transform="translate(437,1338)" d="m0 0h1l-1 13-2 16 1 3-7 1 1-11 3-16 2-1z" fill="#5F5D5C"/>
<path transform="translate(1392,700)" d="m0 0 5 5-1 3 4 2 5 8 6 9 2 5 6 7v2l-4-1-10-15-12-19z" fill="#646262"/>
<path transform="translate(677,905)" d="m0 0 2 1-2 5-11 23-5 10h-3l1-4 5-11 6-12 4-9h2z" fill="#494948"/>
<path transform="translate(889,1970)" d="m0 0 4 2-1 2 4 1-4 1h-4l-1 3h-4l-1 3-8 1-1-4 4-2 2-5h6z" fill="#242424"/>
<path transform="translate(727,452)" d="m0 0h2v21l-1 1-1 8-1 35h-1v-52l1-12z" fill="#565555"/>
<path transform="translate(789,295)" d="m0 0 2 1-2 5-8 16-5 14-3-4 3-8 2-7 4-8h2l2-6z" fill="#4F4E4E"/>
<path transform="translate(520,1341)" d="m0 0h1l-1 10-5 27-10-4 3-1 6 2 1-7h-2v-10l5-15z" fill="#565555"/>
<path transform="translate(553,993)" d="m0 0h2l-2 10-4 10-2 4-5 13-4 13-2 1 1-11 5-11 1-7 3-3z" fill="#52504F"/>
<path transform="translate(825,1975)" d="m0 0h3l-2 4-3 11-4 8-1 5-8 5h-2l2-4 9-16z" fill="#2A2A2A"/>
<path transform="translate(1437,1567)" d="m0 0h4l1 5 5 1v4l-6 1-1-5-7 1-6-1-4 2-2-2 3-3 5-2 5 1z" fill="#232323"/>
<path transform="translate(1361,1251)" d="m0 0 3 3 2 12-1 5 1 3v9l-4-4v-7l-2-7v-13z" fill="#232323"/>
<path transform="translate(1704,1307)" d="m0 0h1l2 40v13l-2-3-2-17v-16z" fill="#434343"/>
<path transform="translate(693,872)" d="m0 0 2 4-13 26-3 4-1-5 6-12z" fill="#4C4C4B"/>
<path transform="translate(1e3 20)" d="m0 0h39v1l-37 1-16 2-11 1h-11v-1z" fill="#565352"/>
<path transform="translate(745,270)" d="m0 0h2l-1 11-2 11-2 7-1 3-2-4 1-13 3-8z" fill="#656262"/>
<path transform="translate(1370,1394)" d="m0 0h2l1 8v16l-1 2h-2v-7l-2-3v-15z" fill="#262626"/>
<path transform="translate(1062,24)" d="m0 0 12 1 7 1v2l-7 3v2l-7-2-6-3z" fill="#474746"/>
<path transform="translate(519,1082)" d="m0 0h1v8l-3 8-5 14h-1l-1-10 1-3h2l1-4 4-12z" fill="#52504F"/>
<path transform="translate(1200,1834)" d="m0 0h5l1 3-11 4-10 4h-2l1-4 4-1v-2z" fill="#2C2C2C"/>
<path transform="translate(606,880)" d="m0 0 2 1-2 5-7 14-6 13-2 3h-2l3-9 8-16z" fill="#4E4D4C"/>
<path transform="translate(1702,1302)" d="m0 0h2v14l-3 1-4-4v-8l1-2z" fill="#343535"/>
<path transform="translate(1024,362)" d="m0 0h1v37l3 24v6h-1l-2-9h-1l-1-19v-31z" fill="#646262"/>
<path transform="translate(1456,1576)" d="m0 0h13l2 5-2 1-11-1-5 2v-4z" fill="#232323"/>
<path transform="translate(1371,1508)" d="m0 0 4 1 2 7v4l4 2v5l-2 1v-3l-5 1-2-8v-8z" fill="#2A2A2A"/>
<path transform="translate(723,546)" d="m0 0h1l1 14v15l-3 3-1 6h-1v-13z" fill="#615F5F"/>
<path transform="translate(706,636)" d="m0 0 3 3-1 5-2 7-3 9-1 2-2-1-1-2z" fill="#6D6B6C"/>
<path transform="translate(772,331)" d="m0 0 3 1-2 11-3 18-1 9h-1v-21l2-4v-8z" fill="#5B5A5A"/>
<path transform="translate(1046,56)" d="m0 0 5 2 1 5-7 2-2 4-3 2-3-3 5-2-1-4 4-4z" fill="#494948"/>
<path transform="translate(1221,1826)" d="m0 0h5l-1 3-9 4-5 1-3 3-3-1v-2l-2-1z" fill="#313131"/>
<path transform="translate(743,730)" d="m0 0h1v5l-3 4v6h-2l-2 5-3 8-3-3 2-5 2-1 1-7z" fill="#494948"/>
<path transform="translate(1546,898)" d="m0 0 4 1 1 4 2-1 2 7 4 2 4 5-1 2-3 1v-2h-2l-3-4v-3l-2-1-4-6v-2h-2z" fill="#4A4A49"/>
<path transform="translate(721,817)" d="m0 0 2 4-10 19-3-1 2-5 8-16z" fill="#4C4C4B"/>
<path transform="translate(738,298)" d="m0 0h2l1 12-3 3-3 23-2 1z" fill="#787677"/>
<path transform="translate(958,25)" d="m0 0h13v1l-9 1v3l-10-1h-5l-1 2-8-1v-1z" fill="#4F4E4D"/>
<path transform="translate(1369,629)" d="m0 0 2 4 9 27-4-2-3-12-3-1v-8z" fill="#767474"/>
<path transform="translate(747,248)" d="m0 0h2l-2 16-2 6-2 10-2 1 4-24z" fill="#858484"/>
<path transform="translate(1318,232)" d="m0 0h3v2l2 1 1 1 1 8 3 8-1 2-3-5-4-8z" fill="#565352"/>
<path transform="translate(1267,1927)" d="m0 0 3 1v8l2 2-9 1-1-3 2-1v-5z" fill="#232323"/>
<path transform="translate(565,967)" d="m0 0 1 3-3 9-6 13-1 4-2 1 2-9 4-11z" fill="#525150"/>
<path transform="translate(949,1964)" d="m0 0h12l2 3-10 2h-8l1-3z" fill="#2A2A2A"/>
<path transform="translate(1706,1388)" d="m0 0h1v17l-1 10-2 2-1-2 1-16z" fill="#2F3030"/>
<path transform="translate(448,1294)" d="m0 0h1l-1 9-4 15-3 8-1-3 4-18 2-7z" fill="#595655"/>
<path transform="translate(1565,955)" d="m0 0 4 4 4 10 3 4-1 3-3 1-2-6-1-4-2-1 1-2z" fill="#232323"/>
<path transform="translate(1007,1873)" d="m0 0h16l4 3h-7v-2l-10 2-17-1v-1zm10 3 3 1-6 2-1-2z" fill="#404040"/>
<path transform="translate(440,1326)" d="m0 0h1v13l-2 7-1 5h-1v-19l2-5z" fill="#595655"/>
<path transform="translate(1086,46)" d="m0 0 7 1 3 2-1 4-2 2-1-5h-2l-1 4h-3l-1-5z" fill="#4A4A49"/>
<path transform="translate(745,767)" d="m0 0 2 3-8 18-1-2-2-1 1-2h2v-5z" fill="#4A4949"/>
<path transform="translate(1372,646)" d="m0 0 2 2 2 5v9 3l-2 1-3-12v-7z" fill="#504F4E"/>
<path transform="translate(720,584)" d="m0 0 2 1v10l-1 5h-2l1 3-1 3h-2v3h-2l2-10 2-7z" fill="#555352"/>
<path transform="translate(719,579)" d="m0 0h1v13l-3 9-2 9-2-1z" fill="#8C8B8B"/>
<path transform="translate(1688,1193)" d="m0 0 2 4 4 23h-2l-2-6-2-11z" fill="#959394"/>
<path transform="translate(1059,58)" d="m0 0h5l2 3-2 3h-2l-1 3h-5l-2-4 4-3 1 4 2-1 1-3-3-1z" fill="#4A4A49"/>
<path transform="translate(676,721)" d="m0 0 3 2v3l-5 5h-2l-1 5-3 1 3-9 3-5h2z" fill="#757373"/>
<path transform="translate(1111,456)" d="m0 0 3 2v3h8v2l6-1 1 3-3 2-5-2v-2l-8-1v-2l-4-1v-2z" fill="#353636"/>
<path transform="translate(729,381)" d="m0 0 3 1v12h-1l-2 9h-1v-10z" fill="#5E5B5B"/>
<path transform="translate(1553,903)" d="m0 0h3l9 13v2h-2l-4-5v-2l-5-2z" fill="#5F5C5C"/>
<path transform="translate(543,1023)" d="m0 0 1 3-4 11-3 7-1-3 1-8 5-9z" fill="#504F4E"/>
<path transform="translate(1703,1432)" d="m0 0h1v11l-2 14-2-4v-6l1-3v-6z" fill="#393A39"/>
<path transform="translate(890,1974)" d="m0 0 6 3-1 2-13 3 1-4 2-1v2l3-3h2z" fill="#373737"/>
<path transform="translate(1106,387)" d="m0 0h2l1 4-5 3-5 10-1-4 5-10h2z" fill="#232323"/>
<path transform="translate(1264,121)" d="m0 0 8 6v5l-5-2-4-5z" fill="#595655"/>
<path transform="translate(1372,1405)" d="m0 0h1v13l-1 2h-2v-7l-2-3 1-4z" fill="#242424"/>
<path transform="translate(757,739)" d="m0 0 2 4-6 13-2-4 5-12z" fill="#4A4A49"/>
<path transform="translate(436,1351)" d="m0 0 2 2v16h-3l-1-6z" fill="#4A4A49"/>
<path transform="translate(665,929)" d="m0 0 2 1-2 5-4 9h-3l1-4 5-10z" fill="#4D4C4C"/>
<path transform="translate(690,704)" d="m0 0 2 1v3h-2l-2 7-5 13h-2l3-10z" fill="#4F4E4D"/>
<path transform="translate(712,630)" d="m0 0 1 3-2 9h-2l-2-2v-5z" fill="#5A5756"/>
<path transform="translate(699,682)" d="m0 0 2 4-3 3-2 7-4 8-1-3 6-16z" fill="#4F4E4D"/>
<path transform="translate(706,636)" d="m0 0 3 3-1 5-2 6-4-1z" fill="#8A8989"/>
<path transform="translate(739,310)" d="m0 0 2 4-4 15h-1l1-16z" fill="#595655"/>
<path transform="translate(1082,57)" d="m0 0 3 1 3 5v3l-6-1 1-5-6 1v-2z" fill="#4A4A49"/>
<path transform="translate(537,1036)" d="m0 0 1 2-2 10-3 1-2 4v-6h2l2-9z" fill="#565453"/>
<path transform="translate(743,284)" d="m0 0h1v8l-2 7-1 3-2-4v-4h2l1-9z" fill="#5A5757"/>
<path transform="translate(1272,1904)" d="m0 0 1 4-2 13-2-2v-8z" fill="#232323"/>
<path transform="translate(1211,1830)" d="m0 0 4 1-1 2-3 1-3 3-3-1v-2l-2-1z" fill="#333"/>
<path transform="translate(1220,634)" d="m0 0 2 1-4 5-8 7-3 1v2l-2-1 5-6 8-7z" fill="#2C2C2C"/>
<path transform="translate(726,431)" d="m0 0h1v13h2v7l-3 2z" fill="#5D5C5C"/>
<path transform="translate(1180,61)" d="m0 0 10 2h2l1 4 5 5-5-2-13-8z" fill="#575453"/>
<path transform="translate(677,905)" d="m0 0 2 1-2 5-3 6-3-3 3-6h2z" fill="#4B4B4A"/>
<path transform="translate(735,788)" d="m0 0h3l-2 6-3 6h-3l1-4z" fill="#4D4C4C"/>
<path transform="translate(721,578)" d="m0 0 3 1 1 11-2 4-1-6-1-4z" fill="#4C4C4B"/>
<path transform="translate(772,331)" d="m0 0 3 1-2 11-3 1v-7z" fill="#50504F"/>
<path transform="translate(1684,1182)" d="m0 0h2l2 6v9l-2-2-2-7z" fill="#6F6D6D"/>
<path transform="translate(1024,409)" d="m0 0h2l2 14v6h-1l-2-9h-1z" fill="#5A5959"/>
<path transform="translate(1679,1251)" d="m0 0 5 1v5h2v2l-6-1-1-1z" fill="#232323"/>
<path transform="translate(1692,1220)" d="m0 0h2l2 9v10h-1l-3-14z" fill="#696767"/>
<path transform="translate(555,1155)" d="m0 0h1v10l-3 3-2-4z" fill="#4A4A49"/>
<path transform="translate(1586,990)" d="m0 0 4 4 4 8v4h-2l-6-13z" fill="#232323"/>
<path transform="translate(790,474)" d="m0 0 5 5 4 5-1 2-4-2-4-6z" fill="#545352"/>
<path transform="translate(1043,36)" d="m0 0 2 3-1 4-3 1-3-1v-4z" fill="#4A4A49"/>
<path transform="translate(529,1229)" d="m0 0h2v7l-5 8-2 2 1-7 1-2h2z" fill="#4A4A49"/>
<path transform="translate(1670,1162)" d="m0 0h3l2 4v7l-4-4v-5l-2-1zm1 10 2 1z" fill="#262626"/>
<path transform="translate(1572,928)" d="m0 0 4 4 4 8-4-2-1-4-5-2 2-1z" fill="#6B6968"/>
<path transform="translate(682,894)" d="m0 0h2l-1 6-3 6-2-2 1-6z" fill="#4B4A4A"/>
<path transform="translate(699,863)" d="m0 0 1 3-5 9h-1v-6l3-5z" fill="#484847"/>
<path transform="translate(1336,271)" d="m0 0 2 4 2 8v4h-2l-3-10z" fill="#908E8E"/>
<path transform="translate(1207,74)" d="m0 0h5l3 3v2l1 3-4-2-5-4z" fill="#595655"/>
<path transform="translate(452,1278)" d="m0 0h1v8l-3 8h-1v-7z" fill="#595655"/>
<path transform="translate(710,621)" d="m0 0h1l1 10-3 1-1 3-1-3z" fill="#8F8D8E"/>
<path transform="translate(1594,1019)" d="m0 0 4 2-2 4-6-1v-2z" fill="#232323"/>
<path transform="translate(584,924)" d="m0 0 1 4-4 9-3 6-1-4z" fill="#4E4D4C"/>
<path transform="translate(776,320)" d="m0 0h3l-3 11-3-4z" fill="#535251"/>
<path transform="translate(560,981)" d="m0 0 1 2-4 10-2 4-1-2 3-9z" fill="#4F4E4D"/>
<path transform="translate(1340,287)" d="m0 0 2 4 2 12h-2l-2-6z" fill="#989797"/>
<path transform="translate(634,825)" d="m0 0 2 1-2 7-5 3 2-5z" fill="#4C4B4A"/>
<path transform="translate(440,1332)" d="m0 0h1v7l-2 7-1 5h-1l1-13z" fill="#4A4A49"/>
<path transform="translate(545,1185)" d="m0 0 1 2-2 11-2-4v-6z" fill="#4A4A49"/>
<path transform="translate(523,1073)" d="m0 0 1 2-3 11-2-4 1-5z" fill="#555352"/>
<path transform="translate(721,817)" d="m0 0 2 4-3 6h-2l-1-3z" fill="#4B4B4A"/>
<path transform="translate(851,1984)" d="m0 0h4l2 4-6 2-1-4z" fill="#383939"/>
<path transform="translate(546,1012)" d="m0 0h1l-1 8-1 3-3 1 1-9z" fill="#565352"/>
<path transform="translate(1611,992)" d="m0 0 4 5 3 7-3-1-4-6-1-2z" fill="#5C5959"/>
<path transform="translate(677,726)" d="m0 0 1 3-4 8h-2l1-4-1-2z" fill="#595655"/>
<path transform="translate(765,719)" d="m0 0 2 2-1 5-2 2h-2l1-7z" fill="#4C4C4B"/>
<path transform="translate(1062,24)" d="m0 0 12 1-1 2-8 1v-2l-3-1z" fill="#353636"/>
</svg>
